<svg width="90" height="79" viewBox="0 0 90 79" fill="none" xmlns="http://www.w3.org/2000/svg">
<path d="M44.9998 78.6566C69.6335 78.6566 89.6031 74.9252 89.6031 70.3224C89.6031 65.7195 69.6335 61.9882 44.9998 61.9882C20.3661 61.9882 0.396484 65.7195 0.396484 70.3224C0.396484 74.9252 20.3661 78.6566 44.9998 78.6566Z" fill="#F0F1F3"/>
<path fill-rule="evenodd" clip-rule="evenodd" d="M80.6818 45.8382L64.9417 26.4665C64.1865 25.5547 63.0825 25.0027 61.92 25.0027H28.0779C26.9161 25.0027 25.8121 25.5547 25.0569 26.4665L9.31738 45.8382V55.9586H80.6825V45.8382H80.6818Z" fill="#A1ACB8"/>
<path fill-rule="evenodd" clip-rule="evenodd" d="M22.6531 0H67.3458C68.0438 0 68.7131 0.277255 69.2066 0.770772C69.7002 1.26429 69.9774 1.93364 69.9774 2.63158V64.0421C69.9774 64.74 69.7002 65.4094 69.2066 65.9029C68.7131 66.3964 68.0438 66.6737 67.3458 66.6737H22.6531C21.9551 66.6737 21.2858 66.3964 20.7923 65.9029C20.2987 65.4094 20.0215 64.74 20.0215 64.0421V2.63158C20.0215 1.93364 20.2987 1.26429 20.7923 0.770772C21.2858 0.277255 21.9551 0 22.6531 0V0Z" fill="#F2F4F7"/>
<path d="M61.5243 6.54797H28.4736C28.1247 6.54797 27.79 6.6866 27.5432 6.93336C27.2965 7.18012 27.1579 7.51479 27.1579 7.86376V24.2828C27.1579 24.6318 27.2965 24.9665 27.5432 25.2132C27.79 25.46 28.1247 25.5986 28.4736 25.5986H61.5243C61.8733 25.5986 62.208 25.46 62.4547 25.2132C62.7015 24.9665 62.8401 24.6318 62.8401 24.2828V7.86376C62.8401 7.51479 62.7015 7.18012 62.4547 6.93336C62.208 6.6866 61.8733 6.54797 61.5243 6.54797Z" fill="#CDD3DB"/>
<path d="M61.3519 32.7414H28.646C28.2513 32.7414 27.8728 32.8982 27.5937 33.1773C27.3146 33.4563 27.1579 33.8349 27.1579 34.2296C27.1579 34.6242 27.3146 35.0028 27.5937 35.2818C27.8728 35.5609 28.2513 35.7177 28.646 35.7177H61.3519C61.7466 35.7177 62.1251 35.5609 62.4042 35.2818C62.6833 35.0028 62.8401 34.6242 62.8401 34.2296C62.8401 33.8349 62.6833 33.4563 62.4042 33.1773C62.1251 32.8982 61.7466 32.7414 61.3519 32.7414Z" fill="#CDD3DB"/>
<path d="M61.3519 40.4802H28.646C28.2512 40.4802 27.8726 40.637 27.5935 40.9162C27.3143 41.1953 27.1575 41.5739 27.1575 41.9687C27.1575 42.3635 27.3143 42.7421 27.5935 43.0212C27.8726 43.3004 28.2512 43.4572 28.646 43.4572H61.3519C61.7467 43.4572 62.1253 43.3004 62.4045 43.0212C62.6836 42.7421 62.8404 42.3635 62.8404 41.9687C62.8404 41.5739 62.6836 41.1953 62.4045 40.9162C62.1253 40.637 61.7467 40.4802 61.3519 40.4802Z" fill="#CDD3DB"/>
<path d="M76.1052 72.6263C78.2355 72.6263 80.0263 71.1203 80.5362 69.0999C80.6309 68.723 80.6815 68.3289 80.6815 67.923V45.8381H63.3671C61.4546 45.8381 59.9131 47.4526 59.9131 49.4078V49.4157C59.9131 51.371 58.3539 52.9638 56.4414 52.9638H33.5565C31.644 52.9638 30.0848 51.3855 30.0848 49.4309V49.4046C30.0848 47.4493 28.5434 45.8388 26.6309 45.8388H9.31641V67.9223C9.31628 68.3194 9.36534 68.7149 9.46246 69.0999C9.97167 71.1197 11.7625 72.6263 13.8927 72.6263H76.1052Z" fill="#CDD3DB"/>
</svg>
