<svg xmlns="http://www.w3.org/2000/svg" viewBox="0 0 2568.9 628.15"><defs><style>.cls-1{fill:#0049b8;}</style></defs><title>Asset 3</title><g id="Layer_2" data-name="Layer 2"><g id="Layer_1-2" data-name="Layer 1"><path class="cls-1" d="M1249.37,461.38h121.31v31H1249.37Z"/><path class="cls-1" d="M1082,376.82h-69.77V342.53h177.37v34.29H1120.4V580.19H1082Z"/><path class="cls-1" d="M1523,340c82,0,119.41,58.67,120.43,118,1,60.74-36,122.16-120.43,122.16H1432V340Zm-52.85,203.13H1523c58.67,0,83.38-43.23,82.35-85.44-1-40.15-26.08-81-82.35-81h-52.85Z"/><path class="cls-1" d="M1736.18,505.49c3.06,25.81,23.77,42.1,54.66,42.1,17.32,0,38-6.11,48.55-18l22.75,22.07c-17.32,19.35-46.17,28.52-72,28.52-55,0-90.31-35-90.31-88.62,0-50.92,35.65-87.25,87.94-87.25,54,0,90.65,33.27,84.2,101.17ZM1838.37,476c-2.37-26.82-21-40.41-49.57-40.41-25.8,0-46.51,13.59-51.94,40.41Z"/><path class="cls-1" d="M2051.58,580.19V490.56c0-28.86-16.29-48.22-45.15-48.22-28.18,0-46.86,22.75-46.86,50.25v87.6h-35V412.47h31.92l2,24.44c16-18,34.64-26.82,56.36-26.82,40.41,0,72,28.52,72,80.13v90Z"/><path class="cls-1" d="M2208.48,362.52v48.55h48.89v30.22h-49.23v79.79c0,17.65,7.81,27.5,24.1,27.5a46.06,46.06,0,0,0,21.39-5.77l10.19,29.87c-11.88,5.1-21.73,7.47-33.61,7.47-36.67,1-57-19.35-57-59.07V441.29h-32.26V411.07h32.26V366.26Z"/><path class="cls-1" d="M2441.61,408.39h33.95V575.77h-33.28l-1.69-27.16c-10.87,21.73-37.35,31.58-57.72,31.58-48.89,0-85.9-31.24-85.9-88.28,0-56,38.71-87.25,86.58-87.25,24.1,0,46.51,11.2,57,30.22Zm-109.67,83.52c0,34.3,24.45,55.69,54.32,55.69,72.32,0,72.32-111,0-111C2356.39,436.57,2331.94,458,2331.94,491.91Z"/><path class="cls-1" d="M2568.9,342.87V580.19h-35V342.87Z"/><path class="cls-1" d="M556.33,0H178.21C101.77,0,19.86,51.49.06,125.19a1.87,1.87,0,0,0,1.81,2.34l258.66.63a1.88,1.88,0,0,1,1.81,2.35L131,624.83a1.87,1.87,0,0,0,1.8,2.35l74.84,0a1.87,1.87,0,0,0,1.78-1.3q.41-1.27.84-2.55c25.4-73.78,86.4-130.78,167.4-131.78h38a1.86,1.86,0,0,0,1.81-1.41l92.94-363.3a1.86,1.86,0,0,1,1.8-1.4l12.39,0,75.88-.82a120.49,120.49,0,0,0,31.31-4.45A217.07,217.07,0,0,0,702,85.39c38.68-29.33,57.39-71.74,61.5-82.77A1.86,1.86,0,0,0,761.73.11Z"/><path class="cls-1" d="M776.88,1a2.09,2.09,0,0,0-2.59,1.24C771,10.71,755.74,47.63,732,71.39c-46.4,46.4-94,58.37-104.74,60.58a1.12,1.12,0,0,0-.53,1.92,71.51,71.51,0,0,1,22,59.78L584.18,453.43c-5.33,19.82-38.94,46.7-62.44,46.1l-91.92.12h0l-52.79.47c-70.4,0-133.95,57.26-157.23,124.19a2.88,2.88,0,0,0,2.71,3.84H401.92v0l253.66-1.57C736.11,620.43,800,560,819.49,499.23h-.09L891,203.39c5-26,3-95.58-42-148C814.32,15,784.54,3.41,776.88,1Z"/></g></g></svg>