<svg xmlns="http://www.w3.org/2000/svg" xmlns:xlink="http://www.w3.org/1999/xlink" width="105" height="105" viewBox="0 0 105 105"><defs><style>.a{fill:none;}.b{fill:#f8f9fb;}.c{fill:#fdfdfd;}.d{fill:#72818d;}.e{fill:#eceff4;}.f{fill:#fff;}.g{clip-path:url(#a);}.h{fill:#f5f7f9;}.i{fill:#bdc9d4;}.j{isolation:isolate;}.k{fill:#f3a72e;}</style><clipPath id="a"><circle class="a" cx="11.617" cy="11.617" r="11.617"/></clipPath></defs><rect class="a" width="105" height="105"/><g transform="translate(9.181 12.764)"><ellipse class="b" cx="42.933" cy="11.87" rx="42.933" ry="11.87" transform="translate(0 55.734)"/><g transform="translate(18.562 7.624)"><rect class="c" width="47.984" height="59.601" rx="10" transform="translate(0.631 0.631)"/><path class="d" d="M80.314,75.96H42.432a5.689,5.689,0,0,1-5.682-5.682v-49.5A5.689,5.689,0,0,1,42.432,15.1H80.314A5.689,5.689,0,0,1,86,20.778v49.5A5.689,5.689,0,0,1,80.314,75.96Zm-37.882-59.6a4.424,4.424,0,0,0-4.42,4.42v49.5a4.424,4.424,0,0,0,4.42,4.42H80.314a4.424,4.424,0,0,0,4.42-4.42v-49.5a4.424,4.424,0,0,0-4.42-4.42Z" transform="translate(-36.75 -15.096)"/></g><g transform="translate(24.75 19.368)"><rect class="e" width="37.882" height="4.041" rx="2" transform="translate(0 32.831)"/><rect class="e" width="37.882" height="4.041" rx="2" transform="translate(0 22.224)"/><rect class="e" width="37.882" height="4.041" rx="2" transform="translate(0 10.607)"/><rect class="e" width="37.882" height="4.041" rx="2"/></g><g transform="translate(37.882 12.044)"><g transform="translate(0 0.253)"><ellipse class="f" cx="17.173" cy="16.921" rx="17.173" ry="16.921"/><g transform="translate(4.041 3.536)"><circle class="f" cx="13.132" cy="13.132" r="13.132" transform="translate(0)"/><g transform="translate(0 0)"><path class="d" d="M96.132,57.612a13.132,13.132,0,1,1,13.132-13.132A13.147,13.147,0,0,1,96.132,57.612Zm0-25.255a12.122,12.122,0,1,0,12.122,12.122A12.136,12.136,0,0,0,96.132,32.357Z" transform="translate(-83 -31.347)"/></g></g><g transform="translate(5.556 5.05)"><g class="g"><g transform="translate(-4.041 4.041)"><rect class="h" width="19.699" height="6.061" rx="3.031"/><rect class="h" width="19.699" height="5.556" rx="2.778" transform="translate(0 12.627)"/></g></g></g></g><rect class="f" width="2.908" height="4.846" transform="translate(27.545 30.474) rotate(-45)"/><rect class="i" width="5.815" height="11.146" rx="2.908" transform="translate(29.425 34.41) rotate(-45)"/><path class="d" d="M114.632,60.24l-4.309-4.31a2.523,2.523,0,0,0-2.639-.582l-2.8-2.8a17.26,17.26,0,1,0-2.133,1.979l2.873,2.873a2.523,2.523,0,0,0,.583,2.639l4.309,4.309a2.525,2.525,0,0,0,3.572,0l.54-.54a2.525,2.525,0,0,0,0-3.572ZM76.263,41.02a15.91,15.91,0,1,1,15.91,15.91A15.929,15.929,0,0,1,76.263,41.02ZM104.6,53.336l2.355,2.355-.985.985-2.355-2.355Zm9.138,9.583-.539.54a1.292,1.292,0,0,1-1.786,0L107.1,59.15a1.261,1.261,0,0,1,0-1.786l.539-.54a1.264,1.264,0,0,1,1.786,0l4.309,4.31a1.261,1.261,0,0,1,0,1.785Z" transform="translate(-75 -23.847)"/></g><g class="j" transform="translate(53.346 22.022)"><g class="j"><path class="k" d="M105.617,57.124a1.642,1.642,0,0,1,.13-.648,1.609,1.609,0,0,1,.357-.528,1.7,1.7,0,0,1,1.2-.482,1.668,1.668,0,0,1,.658.13,1.7,1.7,0,0,1,.533.352,1.68,1.68,0,0,1,.363.528,1.634,1.634,0,0,1,0,1.3,1.693,1.693,0,0,1-.363.523,1.63,1.63,0,0,1-.533.346,1.73,1.73,0,0,1-.658.124,1.754,1.754,0,0,1-.668-.124,1.62,1.62,0,0,1-1.02-1.522ZM108.672,43.6v5.923a17.531,17.531,0,0,1-.1,1.864q-.1.921-.274,1.915h-1.926q-.176-.993-.275-1.915a17.527,17.527,0,0,1-.1-1.864V43.6Z" transform="translate(-105.617 -43.601)"/></g></g><g transform="translate(68.335 -0.001)"><g transform="translate(2.32 2.758)"><path class="d" d="M140.517,9.555a.631.631,0,0,1-.416-1.107l3.248-2.833a.631.631,0,1,1,.83.952L140.931,9.4A.626.626,0,0,1,140.517,9.555Z" transform="translate(-139.885 -5.459)"/></g><g transform="translate(3.944 7.531)"><path class="d" d="M143.731,16.5a.631.631,0,0,1-.046-1.261l4.429-.327a.624.624,0,0,1,.676.583.632.632,0,0,1-.583.676l-4.429.327Z" transform="translate(-143.1 -14.909)"/></g><path class="d" d="M135.923,5.437a.632.632,0,0,1-.631-.631V.63a.631.631,0,1,1,1.263,0V4.805A.632.632,0,0,1,135.923,5.437Z" transform="translate(-135.292 0.001)"/></g></g></svg>