<svg width="30" height="29" viewBox="0 0 30 29" fill="none" xmlns="http://www.w3.org/2000/svg">
<g clip-path="url(#clip0_9010_46367)">
<path d="M18.1006 14.6471C22.0816 14.6471 25.3199 11.5115 25.3199 7.65752C25.3199 3.8035 22.0816 0.667969 18.1006 0.667969C14.1197 0.667969 10.8809 3.8035 10.8809 7.65752C10.8809 11.5115 14.1197 14.6471 18.1006 14.6471ZM17.2456 3.5491V3.35927C17.2456 2.9018 17.6281 2.53152 18.1006 2.53152C18.5726 2.53152 18.9557 2.9018 18.9557 3.35927V3.5502C19.9731 3.76156 20.7387 4.63898 20.7387 5.68636C20.7387 6.14328 20.3556 6.51411 19.8836 6.51411C19.4111 6.51411 19.0286 6.14328 19.0286 5.68636C19.0286 5.39444 18.7829 5.1566 18.4814 5.1566H17.7147C17.4132 5.1566 17.1675 5.39444 17.1675 5.68636C17.1675 5.85357 17.2502 6.01249 17.3893 6.11182L18.1006 6.62172L19.8289 7.86004C20.3967 8.26674 20.7387 8.91736 20.7432 9.60163V9.60936C20.7472 10.1932 20.5164 10.7439 20.0923 11.1595C19.7776 11.4679 19.3843 11.6749 18.9557 11.7621V11.9558C18.9557 12.4132 18.5726 12.7835 18.1006 12.7835C17.6281 12.7835 17.2456 12.4132 17.2456 11.9558V11.7648C16.8284 11.6787 16.4448 11.4801 16.1347 11.1832C15.7055 10.7732 15.4672 10.2258 15.4638 9.64192C15.4609 9.185 15.8411 8.81196 16.3131 8.8092H16.3188C16.7885 8.8092 17.171 9.17672 17.1738 9.63198C17.1749 9.91767 17.4124 10.1584 17.7239 10.1584C18.1963 10.1557 18.0203 10.1567 18.4894 10.154C18.7929 10.1517 19.0355 9.91325 19.0332 9.62039V9.61267C19.032 9.44712 18.9494 9.28929 18.8115 9.19051L18.1006 8.68117L16.3718 7.44285C15.7995 7.03229 15.4575 6.3756 15.4575 5.68636C15.4575 4.63677 16.2253 3.7588 17.2456 3.5491Z" fill="#1A6DE3"/>
<path d="M6.40264 18.6241C6.18347 18.2562 5.69662 18.1282 5.31431 18.3417L1.29241 20.5894C0.911589 20.8028 0.780942 21.2743 1.0008 21.6435L5.11139 28.536C5.33141 28.9046 5.8182 29.0312 6.19971 28.8183L10.2216 26.5702C10.603 26.3573 10.7331 25.8857 10.5132 25.5165L6.40264 18.6241Z" fill="#1A6DE3"/>
<path d="M29.4479 17.2491C29.0609 16.7287 28.3119 16.6111 27.7749 16.9858C26.1458 18.1221 23.0176 20.304 22.7691 20.4778C22.6545 20.5722 22.5342 20.6577 22.4088 20.7334C21.9169 21.033 21.3463 21.193 20.7507 21.193H16.6551C16.1831 21.193 15.8001 20.8227 15.8001 20.3653C15.8001 19.9073 16.1837 19.5375 16.6551 19.5375H21.0351C21.6786 19.5375 22.1939 19.0188 22.1671 18.3947C22.1421 17.8026 21.6199 17.3434 21.0077 17.3434H17.6737C17.448 17.1122 17.2006 16.9003 16.9356 16.711C16.0241 16.0604 14.8978 15.6758 13.6785 15.6758C11.5108 15.6758 9.35382 16.998 8.45947 18.7627L11.9571 24.6271H18.5179C19.8061 24.6271 21.075 24.3081 22.1917 23.6862C22.5787 23.471 22.9931 23.2122 23.4423 22.8999C25.3244 21.5909 29.1726 18.8715 29.1754 18.8698C29.7135 18.4957 29.8355 17.7694 29.4479 17.2491Z" fill="#1A6DE3"/>
</g>
<defs>
<clipPath id="clip0_9010_46367">
<rect width="29.1847" height="28.254" fill="white" transform="translate(0.691895 0.667969)"/>
</clipPath>
</defs>
</svg>
