<svg width="28" height="28" viewBox="0 0 28 28" fill="none" xmlns="http://www.w3.org/2000/svg">
<path d="M18.4567 1.64709C16.1498 1.64709 14.6079 2.65436 14.0016 3.13672C13.3957 2.65478 11.8538 1.64709 9.54643 1.64709C7.72549 1.64709 4.5 3.00006 4.28125 5.69722V6.72634C4.28125 8.81699 4.84908 10.7972 5.9236 12.4524C5.99772 12.5658 6.07427 12.6801 6.15446 12.7935C6.38817 13.1252 6.63803 13.5144 6.72107 13.8862C6.76241 14.0713 6.9268 14.2025 7.11638 14.2025H7.92642V15.4176C7.92642 15.6416 8.10786 15.8226 8.33144 15.8226H11.1665V17.0377H16.8367V15.8226H19.6718C19.8953 15.8226 20.0768 15.6416 20.0768 15.4176V14.2025H20.8868C21.0763 14.2025 21.2408 14.0713 21.2821 13.8862C21.3655 13.5144 21.6155 13.1252 21.8487 12.7935C21.9289 12.6801 22.0059 12.5658 22.0796 12.4524C23.1541 10.7972 23.722 8.81705 23.722 6.72634V5.69722C23 2.50006 20.2777 1.64709 18.4567 1.64709ZM19.2668 15.0126H16.4317H11.5715H8.73645V14.2025H19.2668L19.2668 15.0126Z" fill="#1A6DE3"/>
<path d="M11.1641 21.0878H16.8343V21.8978H11.1641V21.0878Z" fill="#1A6DE3"/>
<path d="M11.1641 19.4677H16.8343V20.2777H11.1641V19.4677Z" fill="#1A6DE3"/>
<path d="M11.1641 22.7078H16.8343V23.5178H11.1641V22.7078Z" fill="#1A6DE3"/>
<path d="M11.1641 17.8477H16.8343V18.6577H11.1641V17.8477Z" fill="#1A6DE3"/>
<path d="M12.4215 26.129C12.49 26.2663 12.6306 26.353 12.784 26.353H15.2141C15.3676 26.353 15.5078 26.2663 15.5766 26.129L16.4773 24.3279H11.5215L12.4215 26.129Z" fill="#1A6DE3"/>
</svg>
