<svg width="35" height="35" viewBox="0 0 35 35" fill="none" xmlns="http://www.w3.org/2000/svg">
<path d="M12.6993 9.00091H21.6568L23.59 7.45444C24.2482 6.92927 24.494 6.0767 24.2158 5.28112C23.9375 4.48554 23.2145 3.97266 22.3742 3.97266H11.9819C11.1416 3.97266 10.4186 4.48666 10.1403 5.28112C9.8621 6.07558 10.1079 6.92927 10.765 7.45332L12.6993 9.00091Z" fill="#FFC107"/>
<path d="M21.8095 10.6758H12.5458C9.49407 13.6715 7.12061 18.9277 7.12061 23.2464C7.12061 26.9997 9.10743 30.7888 13.5459 30.7888H21.0887C24.8803 30.7888 27.2347 27.8981 27.2347 23.2464C27.2347 18.9277 24.8613 13.6715 21.8095 10.6758ZM16.753 19.8942H17.6023C18.9086 19.8942 19.9713 20.9569 19.9713 22.2631C19.9713 23.4375 19.1243 24.404 18.0158 24.6007V25.4801C18.0158 25.9427 17.6403 26.3181 17.1777 26.3181C16.715 26.3181 16.3396 25.9427 16.3396 25.4801V24.6431H15.2221C14.7595 24.6431 14.384 24.2677 14.384 23.8051C14.384 23.3425 14.7595 22.9671 15.2221 22.9671H17.6023C17.9845 22.9671 18.2951 22.6564 18.2951 22.2743C18.2951 21.881 17.9845 21.5703 17.6023 21.5703H16.753C15.4467 21.5703 14.384 20.5077 14.384 19.2015C14.384 18.0271 15.2311 17.0605 16.3396 16.8639V15.9834C16.3396 15.5208 16.715 15.1453 17.1777 15.1453C17.6403 15.1453 18.0158 15.5208 18.0158 15.9834V16.8214H19.1332C19.5958 16.8214 19.9713 17.1969 19.9713 17.6595C19.9713 18.1221 19.5958 18.4975 19.1332 18.4975H16.753C16.3709 18.4975 16.0602 18.8081 16.0602 19.1903C16.0602 19.5836 16.3709 19.8942 16.753 19.8942Z" fill="#FFC107"/>
</svg>
