<svg width="20" height="20" viewBox="0 0 20 20" fill="none" xmlns="http://www.w3.org/2000/svg">
<g clip-path="url(#clip0)">
<path d="M9.67976e-05 4.72656V3.55469H2.31377L2.32627 3.51563L1.44736 2.84727L2.14853 1.91406C2.81806 2.4168 3.47666 2.89648 4.11455 3.39844C4.30322 3.54609 4.48877 3.57734 4.72705 3.54063V2.3918H15.2786V3.55664C15.7474 3.55664 16.197 3.54336 16.6458 3.55937C18.0337 3.60937 19.297 4.53125 19.7657 5.83594C19.8685 6.12109 19.922 6.42188 20.0001 6.71719V7.42031C19.9856 7.48242 19.9665 7.54414 19.9571 7.60742C19.7474 8.98516 18.7106 10.1441 17.3528 10.4613C16.9466 10.5563 16.5165 10.5555 16.0962 10.582C15.8267 10.5988 15.5548 10.5852 15.2642 10.5852V11.7473H4.72314V10.6195C4.1833 10.6195 3.65908 10.5711 3.14736 10.6293C2.10908 10.7465 1.30244 11.6305 1.18135 12.7047C1.06689 13.7176 1.70596 14.7629 2.67822 15.1086C2.94883 15.1986 3.23048 15.2512 3.51533 15.2648C3.91416 15.291 4.31572 15.2715 4.73135 15.2715V14.1113H15.2821V15.2578H17.2845L16.3673 14.568L17.0704 13.6305L20.0001 15.857L17.0704 18.0836L16.3673 17.1461L17.2821 16.4547H15.2634V17.6043H4.72275V16.4426C4.26611 16.4426 3.83096 16.4539 3.39463 16.4426C2.69734 16.4203 2.02273 16.1895 1.45785 15.7801C0.892965 15.3707 0.463717 14.8014 0.225488 14.1457C0.125098 13.8668 0.0727539 13.5707 -0.00146484 13.2824V12.5781C0.012207 12.5219 0.030957 12.4664 0.0375976 12.4098C0.244629 11.0172 1.26963 9.86133 2.64463 9.5375C3.07432 9.43594 3.5333 9.44453 3.97978 9.41602C4.22314 9.40039 4.46885 9.41328 4.7333 9.41328V8.25117H15.2755V9.37813C15.8157 9.37813 16.3403 9.42695 16.8524 9.36797C17.9177 9.2457 18.7665 8.28516 18.82 7.21133C18.8774 6.09531 18.156 5.05586 17.0923 4.82031C16.6235 4.7168 16.1239 4.75156 15.638 4.72656C15.5181 4.72031 15.3974 4.72656 15.2622 4.72656V5.88438H4.7208V4.73711C4.48642 4.70547 4.30166 4.73711 4.11338 4.88359C3.53056 5.34258 2.92978 5.78125 2.33682 6.22422C2.27666 6.26953 2.21572 6.31289 2.14697 6.36289L1.44736 5.42969L2.37705 4.72656H9.67976e-05Z" fill="#1A6DE3"/>
</g>
<defs>
<clipPath id="clip0">
<rect width="20" height="20" fill="white"/>
</clipPath>
</defs>
</svg>
