<svg width="45" height="45" viewBox="0 0 45 45" fill="none" xmlns="http://www.w3.org/2000/svg">
<path d="M22.5 45C34.9264 45 45 34.9264 45 22.5C45 10.0736 34.9264 0 22.5 0C10.0736 0 3.60916e-05 10.0736 3.60916e-05 22.5L0 40C0 43 2 45 4.99999 45H22.5Z" fill="#1A6DE3"/>
<path d="M37.328 15.5724C37.1545 14.4349 36.6637 13.3652 35.9087 12.4796C35.1537 11.594 34.1635 10.9262 33.0454 10.5487C31.9274 10.1713 30.7244 10.0986 29.5668 10.3385C28.4093 10.5785 27.3415 11.1219 26.4794 11.9098C25.8691 12.4395 25.3755 13.0838 25.0281 13.8037C24.6807 14.5236 24.4867 15.3043 24.4578 16.0989C24.3671 18.9134 24.366 21.7302 24.34 24.5458C24.3379 24.6256 24.3536 24.7049 24.3862 24.7783C24.4187 24.8516 24.4673 24.9172 24.5285 24.9704C24.6072 24.9896 24.6892 24.9917 24.7688 24.9767C24.8484 24.9616 24.9236 24.9298 24.9891 24.8834C26.1381 24.112 27.2808 23.3325 28.4173 22.5451C28.4825 22.4941 28.5608 22.4612 28.6438 22.4499C28.7267 22.4386 28.8113 22.4494 28.8885 22.481C29.9028 22.8233 30.9915 22.9022 32.0468 22.7099C33.203 22.5251 34.2834 22.031 35.1667 21.283C36.05 20.5349 36.7014 19.5626 37.0476 18.475C37.1971 17.9711 37.3152 17.459 37.4011 16.9413V16.0371C37.3799 15.8837 37.3587 15.7258 37.328 15.5724ZM31.4378 19.0599C31.4238 19.1921 31.3564 19.3136 31.2504 19.3977C31.1445 19.4818 31.0085 19.5217 30.8723 19.5085C30.8001 19.5078 30.7287 19.4932 30.6622 19.4657C30.5958 19.4381 30.5356 19.3981 30.485 19.348C30.4345 19.2978 30.3946 19.2384 30.3677 19.1733C30.3407 19.1082 30.3273 19.0385 30.3281 18.9683C30.3342 18.8267 30.3943 18.6923 30.4966 18.5913C30.5988 18.4902 30.7361 18.4296 30.8817 18.4212H30.923C30.9944 18.4244 31.0644 18.4413 31.1291 18.4708C31.1938 18.5004 31.2519 18.542 31.3 18.5933C31.3481 18.6447 31.3854 18.7047 31.4096 18.77C31.4339 18.8353 31.4446 18.9047 31.4413 18.974C31.4451 19.0014 31.4471 19.0289 31.4472 19.0564L31.4378 19.0599ZM32.458 15.7578C32.2588 15.9773 32.043 16.182 31.8124 16.3701C31.6498 16.4831 31.5224 16.6374 31.4443 16.8161C31.3661 16.9948 31.3402 17.191 31.3695 17.3831C31.4048 17.6303 31.3023 17.7265 31.0443 17.7059C30.8346 17.6921 30.6226 17.7059 30.3987 17.7059C30.301 17.3587 30.3175 16.9904 30.4459 16.6528C30.5744 16.3152 30.8083 16.025 31.115 15.823C31.3564 15.6555 31.5429 15.4238 31.6522 15.1558C31.6986 15.0338 31.6942 14.899 31.6398 14.7801C31.5855 14.6612 31.4855 14.5677 31.3612 14.5194C31.2082 14.4262 31.0292 14.3816 30.849 14.3916C30.6687 14.4017 30.4962 14.4659 30.3552 14.5755C30.2221 14.6968 30.1173 14.8443 30.0477 15.0081C29.9888 15.1489 29.9299 15.2084 29.7756 15.189L28.9757 15.0825C28.995 14.8509 29.0675 14.6265 29.1878 14.4257C29.308 14.2248 29.473 14.0527 29.6707 13.9219C30.0799 13.6472 30.5721 13.5137 31.0687 13.5428C31.5652 13.5718 32.0373 13.7617 32.4097 14.0822C32.4521 14.1171 32.4916 14.1553 32.5275 14.1966C32.7313 14.4113 32.8393 14.6957 32.8281 14.9875C32.8168 15.2794 32.6871 15.5551 32.4674 15.7544L32.458 15.7578Z" fill="white"/>
<path d="M25.7751 30.5318C25.6573 29.9847 25.5077 29.4834 24.8692 29.2728C23.7524 28.9099 22.6451 28.5174 21.5365 28.1282C21.4643 28.0957 21.3829 28.0879 21.3055 28.1059C21.2281 28.124 21.1592 28.1669 21.1101 28.2278C20.1959 29.1297 19.2676 30.019 18.3511 30.9198C18.1591 31.1121 17.9871 31.3307 17.8057 31.5379L17.6631 31.5321C17.5996 31.4248 17.5267 31.3229 17.4452 31.2277C16.4297 30.2285 15.4024 29.235 14.3822 28.2346C14.3344 28.1732 14.2667 28.1292 14.19 28.1097C14.1133 28.0902 14.032 28.0963 13.9593 28.1271C12.8347 28.5254 11.7069 28.918 10.576 29.3048C10.3854 29.3612 10.215 29.4687 10.0843 29.6148C9.95371 29.761 9.8681 29.9399 9.83733 30.1312C9.55932 31.4268 9.26716 32.7202 8.98325 34.0147C8.85484 34.6007 8.73233 35.1879 8.60156 35.8002L26.9014 35.7911C26.8802 35.6766 26.8637 35.5851 26.8448 35.4958C26.4883 33.8407 26.1317 32.1861 25.7751 30.5318Z" fill="white"/>
<path d="M14.2763 24.0218C14.377 24.8266 14.7715 25.5696 15.3881 26.116C16.0046 26.6623 16.8024 26.9757 17.6365 26.9992C18.4707 27.0228 19.2858 26.7549 19.934 26.2443C20.5822 25.7337 21.0204 25.0141 21.1691 24.2163C21.2975 23.4563 21.46 22.7021 21.612 21.9467C21.7537 21.3605 21.7358 20.7485 21.56 20.1711C21.3842 19.5937 21.0566 19.0707 20.6095 18.6537C20.2307 18.2975 19.7812 18.0198 19.2885 17.8376C18.7958 17.6554 18.27 17.5725 17.7433 17.5939C17.3498 17.6431 16.9493 17.6637 16.5652 17.7461C15.6713 17.9579 14.8937 18.4922 14.3905 19.2407C13.8873 19.9892 13.6961 20.8957 13.8557 21.7761C14.0053 22.5224 14.1585 23.2698 14.2763 24.0218Z" fill="white"/>
</svg>
