<svg width="30" height="29" viewBox="0 0 30 29" fill="none" xmlns="http://www.w3.org/2000/svg">
<path fill-rule="evenodd" clip-rule="evenodd" d="M13.0682 6.31876C13.0682 9.4346 10.4545 11.9696 7.24128 11.9696C4.02809 11.9696 1.41392 9.4346 1.41392 6.31876C1.41392 3.20293 4.02809 0.667969 7.24128 0.667969C10.4545 0.667969 13.0682 3.20293 13.0682 6.31876ZM6.55116 2.84379V2.99726C5.72762 3.16679 5.10789 3.8766 5.10789 4.72515C5.10789 5.28238 5.38394 5.81329 5.84586 6.14521L7.24128 7.14635L7.815 7.55814C7.92634 7.63799 7.99305 7.76559 7.99397 7.89943V7.90568C7.99586 8.14244 7.8 8.33522 7.55506 8.33709L6.93717 8.34066C6.68574 8.34066 6.49411 8.14601 6.49319 7.91505C6.49089 7.54698 6.18218 7.24985 5.80307 7.24985H5.79847C5.41753 7.25208 5.11065 7.55367 5.11295 7.92308C5.11571 8.39509 5.30803 8.83766 5.65447 9.16914C5.90475 9.40917 6.21439 9.56978 6.55116 9.63937V9.79374C6.55116 10.1636 6.85988 10.4629 7.24128 10.4629C7.62223 10.4629 7.9314 10.1636 7.9314 9.79374V9.63714C8.27738 9.56665 8.59484 9.39935 8.8488 9.14996C9.1911 8.81402 9.37743 8.36877 9.37421 7.89676V7.89051C9.37053 7.3373 9.09448 6.8113 8.63624 6.4825L7.24128 5.48136L6.6671 5.06913C6.55484 4.98882 6.48813 4.86033 6.48813 4.72515C6.48813 4.48915 6.68643 4.29686 6.92981 4.29686H7.54862C7.792 4.29686 7.99029 4.48915 7.99029 4.72515C7.99029 5.09456 8.299 5.39436 8.68041 5.39436C9.06136 5.39436 9.37053 5.09456 9.37053 4.72515C9.37053 3.87838 8.75264 3.16902 7.9314 2.99815V2.84379C7.9314 2.47394 7.62223 2.17458 7.24128 2.17458C6.85988 2.17458 6.55116 2.47394 6.55116 2.84379ZM23.3735 3.21217L22.2876 3.15675L22.3385 2.48571C22.5193 2.49494 22.6982 2.50248 22.8757 2.50997C23.3565 2.53025 23.827 2.55009 24.2958 2.60168C24.3892 2.62896 24.4728 2.67612 24.5387 2.73872C24.6046 2.80132 24.6506 2.87729 24.6724 2.95944C24.6743 3.36266 24.6388 3.76582 24.6026 4.17747L24.6026 4.17758L24.6026 4.1778L24.6026 4.17803L24.6026 4.17825L24.6025 4.17848L24.6025 4.1787C24.5892 4.33031 24.5758 4.48307 24.5641 4.63742L23.7664 4.59671L23.8235 3.84336L23.8142 3.85127L23.8139 3.85151C23.5632 4.06355 23.3901 4.20994 23.2249 4.35562C22.9352 4.60972 22.645 4.86344 22.3548 5.11718L22.3548 5.11722L22.3547 5.11727L22.3547 5.11731L22.3546 5.11736L22.3546 5.1174L22.3546 5.11741C21.462 5.8978 20.5693 6.67829 19.6919 7.47001C19.4026 7.7364 19.094 7.86639 18.676 7.78768C18.2581 7.70897 17.9407 7.84884 17.6245 8.11386C16.2071 9.3 14.7822 10.4798 13.3576 11.6594C12.2074 12.6118 11.0573 13.5641 9.91128 14.5196C9.61092 14.7717 9.31149 14.9228 8.89282 14.836C7.58506 14.5661 6.57746 14.9347 5.65826 15.7703C5.06874 16.3069 4.40428 16.7842 3.7397 17.2616L3.73967 17.2616L3.73964 17.2616L3.73962 17.2616L3.73959 17.2616L3.73956 17.2617C3.4526 17.4678 3.16562 17.6739 2.88464 17.8849C2.79042 17.955 2.69171 18.0215 2.57255 18.1018L2.45866 18.1787L1.9866 17.6956C2.01343 17.6706 2.03865 17.6462 2.06308 17.6225C2.12039 17.5671 2.17332 17.5159 2.23242 17.4706C2.52564 17.2496 2.81859 17.0283 3.11154 16.807C4.22455 15.9662 5.33756 15.1254 6.4655 14.299C6.6834 14.1581 6.94826 14.0803 7.22112 14.0771C7.46048 14.0719 7.7089 14.0946 7.95574 14.1172L7.95576 14.1172H7.95578C8.39421 14.1573 8.82765 14.1969 9.19645 14.0792C9.59744 13.9512 9.90553 13.6485 10.2139 13.3455L10.214 13.3455L10.214 13.3455L10.214 13.3455L10.214 13.3455L10.214 13.3454L10.214 13.3454C10.3489 13.2129 10.4839 13.0802 10.6268 12.9621C12.8532 11.1249 15.0775 9.28063 17.2971 7.42696C17.6275 7.15119 17.9551 7.00151 18.4073 7.09C18.7828 7.16081 19.0535 7.05069 19.3264 6.80527C20.1799 6.03582 21.0482 5.27705 21.9162 4.51862L21.9162 4.51859L21.9162 4.51856L21.9162 4.51854L21.9163 4.51851L21.9163 4.51848L21.9166 4.5182L21.9167 4.51812L21.9168 4.51804L21.9169 4.51796C22.2665 4.21247 22.616 3.90704 22.9645 3.60099C23.0155 3.55426 23.0629 3.50799 23.1156 3.4566C23.1855 3.38845 23.2647 3.3113 23.3735 3.21217ZM1.57546 18.7962L0.744501 19.4618C0.589846 19.2829 0.453737 19.1256 0.279106 18.9262L1.1501 18.3361L1.57546 18.7962ZM1.3051 28.775H5.60182C6.18582 28.775 6.65839 28.2772 6.65839 27.662V20.9103C6.65839 20.2951 6.18582 19.7973 5.60182 19.7973H1.3051C0.721103 19.7973 0.248535 20.2951 0.248535 20.9103V27.662C0.248535 28.2772 0.721103 28.775 1.3051 28.775ZM7.8241 16.606C7.8241 15.9908 8.30192 15.493 8.89241 15.493H13.1656C13.7561 15.493 14.2339 15.9908 14.2339 16.606V27.8095C14.2339 28.4246 13.7561 28.9224 13.1656 28.9224H8.89241C8.30192 28.9224 7.8241 28.4246 7.8241 27.8095V16.606ZM16.468 11.1887C15.8775 11.1887 15.3997 11.6813 15.3997 12.29V27.7811C15.3997 28.3898 15.8775 28.8823 16.468 28.8823H20.7412C21.3317 28.8823 21.8095 28.3898 21.8095 27.7811V12.29C21.8095 11.6813 21.3317 11.1887 20.7412 11.1887H16.468ZM24.0306 6.40614H28.3273C28.9113 6.40614 29.3839 6.9071 29.3839 7.52619V27.7618C29.3839 28.3808 28.9113 28.8818 28.3273 28.8818H24.0306C23.4466 28.8818 22.974 28.3808 22.974 27.7618V7.52619C22.974 6.9071 23.4466 6.40614 24.0306 6.40614Z" fill="#007BFF"/>
</svg>
