<svg width="24" height="24" viewBox="0 0 24 24" fill="none" xmlns="http://www.w3.org/2000/svg">
<g clip-path="url(#clip0)">
<path fill-rule="evenodd" clip-rule="evenodd" d="M17.7588 0.128291C17.5548 0.0963149 17.3511 0.0643943 17.1535 0.00462914L16.7823 -0.00146484C16.7756 0.000674509 16.769 0.00269775 16.7623 0.00460488H16.4272C16.4205 0.00269775 16.4139 0.000674509 16.4073 -0.00146484H16.3604C16.3538 0.000674509 16.3471 0.00269775 16.3405 0.00460488H16.0053C15.9986 0.00269775 15.992 0.000674509 15.9854 -0.00146484H15.8916C15.7592 0.0218471 15.6252 0.0283299 15.4911 0.0348155C15.3475 0.0417622 15.2038 0.0487119 15.062 0.0763478C14.0633 0.265806 13.1171 0.667695 12.2874 1.25479C12.0326 1.4371 12.0309 1.43594 11.7841 1.26939L11.7624 1.25479C10.6859 0.529174 9.52867 0.0323539 8.20442 0.0234257C8.20373 0.0178288 8.20361 0.0121565 8.20407 0.00649534H7.97014C7.97985 0.0116759 7.98531 0.0173037 7.98668 0.0233789H7.97398L7.97075 0.0230317C7.9702 0.0175365 7.96985 0.0120209 7.9697 0.00649534H7.66185C7.6565 0.00437011 7.65117 0.00203525 7.64586 -0.000527143H7.22398C7.22232 0.00131458 7.22062 0.00302213 7.21889 0.00460488H7.12748C7.13851 0.0114192 7.14415 0.017784 7.14456 0.0238551L7.13801 0.0236349L7.13023 0.0233789L7.12519 0.0232812C7.1255 0.0170557 7.12608 0.0108303 7.1272 0.00460488H7.0416C7.03986 0.00303012 7.03815 0.00132313 7.03648 -0.000527143H6.84898C6.66799 0.0734754 6.4777 0.099387 6.28723 0.125322C6.16643 0.141771 6.04556 0.15823 5.92695 0.186973C4.75836 0.470567 3.71726 0.986192 2.88336 1.86838C2.16476 2.62729 1.79351 3.56479 1.55539 4.56041C1.10633 6.43635 1.1593 8.31838 1.51508 10.2023C1.68242 11.0887 2.08601 11.8246 2.81961 12.3688C3.59492 12.9431 4.46539 13.3068 5.37617 13.5913C6.20305 13.8496 7.05195 14.009 7.90742 14.1379C8.02555 14.1557 8.08039 14.196 8.10383 14.3142C8.27539 15.1696 8.44836 16.0246 8.63117 16.8778C8.66351 17.0306 8.61664 17.076 8.47883 17.1159C8.2542 17.1786 8.03479 17.2587 7.82258 17.3554C7.34305 17.5785 7.10023 18.1214 7.2132 18.6721C7.2676 18.9205 7.4009 19.1446 7.5932 19.311C7.78549 19.4773 8.02645 19.577 8.28008 19.5951C8.52898 19.6101 8.75726 19.5426 8.98789 19.4695C8.99965 19.4662 9.01213 19.4616 9.02486 19.4569C9.08416 19.4349 9.14887 19.411 9.17164 19.5163C9.18555 19.5808 9.20382 19.6463 9.22214 19.712L9.22215 19.712C9.27049 19.8853 9.31921 20.0601 9.2893 20.2195C9.27146 20.3141 9.14286 20.3409 9.00914 20.3687C8.93555 20.384 8.8604 20.3997 8.80133 20.4271C8.78036 20.4375 8.75889 20.4465 8.73751 20.4555L8.7375 20.4555C8.72304 20.4615 8.70863 20.4676 8.69445 20.474C7.97211 20.8017 7.74945 21.6693 8.2257 22.2974C8.54773 22.7226 9.06898 22.8623 9.65726 22.6668C9.80305 22.6185 9.88695 22.6124 9.96617 22.7751C10.134 23.1173 10.4002 23.377 10.7129 23.5959C10.987 23.7867 11.298 23.8758 11.6102 23.9652C11.6461 23.9755 11.682 23.9857 11.7179 23.9962H11.9523L11.9577 23.994L11.953 23.9971H12.2342L12.2328 23.9959L12.2335 23.9962H12.3273C12.3377 23.964 12.3631 23.9598 12.3904 23.9552L12.4004 23.9535C13.2216 23.8115 13.8071 23.3573 14.162 22.6073C14.3115 22.2908 14.3747 21.9513 14.4378 21.6119L14.4378 21.6119C14.4615 21.4843 14.4852 21.3568 14.5135 21.2306C14.5421 21.1045 14.596 21.0473 14.7104 21.0107C14.7874 20.9858 14.8648 20.9615 14.9422 20.9372C15.1918 20.859 15.4418 20.7806 15.6812 20.6779C16.4016 20.3704 16.6107 19.4624 16.1204 18.8531C15.8621 18.5334 15.5176 18.3998 15.1009 18.404C15.119 18.3161 15.138 18.2299 15.1568 18.1446C15.2 17.9485 15.242 17.7577 15.2701 17.5649C15.2893 17.4299 15.3568 17.3835 15.4693 17.3474C15.5558 17.3196 15.6427 17.2928 15.7296 17.266L15.7297 17.2659C15.9852 17.1871 16.2407 17.1083 16.4855 17.0034C16.6619 16.9277 16.8173 16.8103 16.9384 16.6613C17.0595 16.5124 17.1426 16.3363 17.1807 16.1481C17.2187 15.96 17.2106 15.7654 17.157 15.5811C17.1033 15.3968 17.0058 15.2283 16.8727 15.0899C16.6046 14.8087 16.262 14.7028 15.8668 14.7149C15.8742 14.6777 15.8828 14.6423 15.8911 14.608L15.8911 14.608L15.8911 14.608L15.8911 14.6079L15.8911 14.6079L15.8911 14.6078L15.8912 14.6077L15.8912 14.6077L15.8912 14.6076L15.8912 14.6076C15.9086 14.5358 15.9247 14.4691 15.9263 14.4023C15.9296 14.2101 16.0276 14.1426 16.2109 14.121C16.675 14.0633 17.1358 13.9812 17.5913 13.8749C18.8129 13.5937 19.9932 13.2131 21.0423 12.5034C21.6952 12.0604 22.1757 11.4857 22.3984 10.7165C22.5526 10.1831 22.6369 9.6365 22.7016 9.08619C22.9018 7.379 22.838 5.6901 22.3468 4.03166C21.7388 1.97713 20.3255 0.786035 18.3052 0.234785C18.1256 0.18577 17.9421 0.157008 17.7588 0.128291ZM12.2328 23.9959C12.1411 23.9184 12.0494 23.9336 11.9577 23.994C12.0006 23.9766 12.0465 23.9676 12.0929 23.9676C12.141 23.9676 12.1885 23.9772 12.2328 23.9959ZM7.12496 0.0440019C7.16476 0.0519432 7.20081 0.0490948 7.22095 0.00460488H7.21889C7.19757 0.0240464 7.17086 0.0246595 7.14456 0.0238551C7.14474 0.0265541 7.14389 0.0291951 7.14201 0.0317918C7.13592 0.0402293 7.12982 0.0439797 7.12514 0.0439797L7.12496 0.0440019ZM7.12496 0.0440019L7.11699 0.0450183C7.08121 0.0496776 7.04593 0.0542717 7.03373 0.00460488H7.0416C7.06247 0.0234508 7.0885 0.023358 7.11426 0.0232661L7.12519 0.0232812C7.12485 0.0301807 7.12485 0.0370802 7.12485 0.0439797L7.12496 0.0440019ZM7.97438 0.0468079L8.21063 0.0463394C8.20747 0.0390102 8.20538 0.0312924 8.20442 0.0234257L8.19664 0.0233789H7.98668C7.9873 0.0260987 7.98709 0.0289083 7.98607 0.0318075C7.9828 0.0411628 7.97859 0.0467842 7.97438 0.0468079ZM7.97438 0.0468079H7.97436C7.94584 0.0468079 7.91693 0.0496318 7.88799 0.0524588C7.80323 0.0607392 7.71819 0.069046 7.64201 0.00649534H7.66185C7.72445 0.0313672 7.78943 0.0275283 7.85431 0.0236947C7.89333 0.0213888 7.93233 0.019085 7.97075 0.0230317C7.97155 0.0310111 7.97276 0.0389472 7.97438 0.0468079ZM16.0053 0.00460488H15.9842C16.1094 0.0847611 16.2341 0.0702299 16.3592 0.00460488H16.3405C16.2309 0.0359296 16.1148 0.0359296 16.0053 0.00460488ZM16.4272 0.00460488H16.4034C16.4597 0.0396261 16.5246 0.0581883 16.5909 0.0581883C16.6572 0.0581883 16.7222 0.0396261 16.7784 0.00460488H16.7623C16.6528 0.0359296 16.5367 0.0359296 16.4272 0.00460488ZM12.6359 2.07742C13.5668 1.37664 14.5925 0.9993 15.7128 0.872268C16.9231 0.735862 18.0926 0.894768 19.2012 1.41836C20.4668 2.01602 21.2384 3.01867 21.6115 4.35367C21.9945 5.72383 22.077 7.11602 21.9472 8.52555C21.8965 9.07727 21.822 9.6243 21.7179 10.169C21.5736 10.9218 21.1615 11.4754 20.5311 11.8874C19.5429 12.5329 18.4428 12.8863 17.3009 13.123C14.7584 13.6504 12.1873 13.6841 9.60919 13.514C8.26762 13.4249 6.94341 13.2327 5.65153 12.8479C5.0167 12.6606 4.40382 12.4057 3.82341 12.0876C2.93934 11.6024 2.40731 10.8913 2.25309 9.87274C1.99856 8.19227 1.92122 6.51883 2.29997 4.84867C2.49356 3.99883 2.77575 3.17758 3.372 2.51805C4.14028 1.66914 5.12137 1.15867 6.23419 0.951956C8.34356 0.556799 10.2439 1.02367 11.8672 2.46508C12.7343 3.23524 13.655 3.92383 14.7181 4.40196C15.2337 4.63633 15.7704 4.78727 16.3404 4.80414C16.6034 4.81211 16.7815 4.67852 16.8092 4.44977C16.8354 4.23274 16.6803 4.03774 16.4192 4.01852C15.1681 3.92477 14.1786 3.26852 13.2176 2.55039C13.0918 2.45531 12.9699 2.35396 12.8424 2.2478L12.8423 2.24779C12.7756 2.19225 12.7072 2.13539 12.6359 2.07742ZM13.0437 14.3859C11.7083 14.4116 10.3751 14.3948 9.01576 14.2649C8.90982 14.2382 8.90607 14.2968 8.92904 14.4088C9.0856 15.1482 9.23607 15.8887 9.38044 16.6302C9.41185 16.7957 9.47419 16.7929 9.61482 16.746C9.88594 16.6563 10.157 16.5663 10.428 16.4764L10.4284 16.4763C11.7744 16.0295 13.1203 15.5828 14.4753 15.1654C14.8803 15.0412 15.0922 14.8673 15.1109 14.4379C15.1179 14.2827 15.1165 14.2593 14.96 14.2715L14.7783 14.2854L14.7783 14.2854C14.2009 14.3299 13.6237 14.3744 13.0437 14.3859ZM16.4111 15.9477C16.4074 16.1465 16.2555 16.2548 16.0446 16.3227C15.2654 16.577 14.4867 16.8327 13.7083 17.0883L13.7079 17.0884L13.7043 17.0896C13.2141 17.2505 12.7241 17.4115 12.2341 17.5719C11.0594 17.9563 9.88426 18.3394 8.70864 18.7213C8.63589 18.7489 8.56114 18.7708 8.48505 18.7869C8.39187 18.8034 8.29588 18.7853 8.2151 18.736C8.13433 18.6867 8.0743 18.6097 8.0463 18.5193C7.98255 18.3215 8.0538 18.1663 8.22395 18.0599C8.29784 18.0182 8.37655 17.9856 8.45833 17.9629C10.889 17.1669 13.3197 16.3716 15.7507 15.5769C16.1379 15.4504 16.406 15.583 16.4111 15.9477ZM8.73133 21.6379C8.76086 21.8277 8.92914 21.9777 9.1607 21.9843C9.17928 21.9784 9.20338 21.9718 9.23085 21.9644L9.23104 21.9643L9.23141 21.9642L9.2315 21.9642L9.23155 21.9642L9.2316 21.9642L9.23168 21.9642L9.23175 21.9641L9.23181 21.9641C9.27832 21.9515 9.33434 21.9363 9.38945 21.9173C10.9266 21.4141 12.4635 20.9104 14.0001 20.406C14.1047 20.3718 14.2095 20.3378 14.3143 20.3039L14.3147 20.3038L14.3152 20.3036L14.3156 20.3035C14.6468 20.1962 14.9781 20.0889 15.3065 19.9729C15.5329 19.8932 15.6215 19.7062 15.5652 19.4919C15.5109 19.2899 15.3234 19.1774 15.089 19.2168C15.0205 19.2306 14.9531 19.2496 14.8874 19.2735L10.4535 20.7266C10.2736 20.7863 10.0936 20.8453 9.91371 20.9043L9.91333 20.9044L9.91298 20.9045L9.91262 20.9046L9.91226 20.9048L9.9119 20.9049C9.6193 21.0007 9.32688 21.0965 9.03554 21.1954C8.81664 21.2699 8.7018 21.448 8.73133 21.6379ZM14.4229 17.7309C14.4076 17.8034 14.3919 17.8758 14.3762 17.9482C14.333 18.1473 14.2899 18.346 14.2569 18.5465C14.24 18.6477 14.1786 18.6707 14.1055 18.6946C12.8118 19.1177 11.5182 19.5412 10.2247 19.9649C10.1263 19.9973 10.0888 19.9935 10.0574 19.8744L10.0539 19.8614C9.87454 19.1858 9.87417 19.1844 10.5454 18.9646C11.7797 18.5605 13.0141 18.1573 14.2485 17.7548C14.259 17.7514 14.2693 17.7473 14.2797 17.7432L14.2797 17.7432L14.2798 17.7432C14.3201 17.7273 14.3622 17.7107 14.4229 17.7309ZM12.2549 23.1773C13.0851 23.0334 13.6078 22.3574 13.6406 21.3679L12.9996 21.5779C12.2511 21.8232 11.5048 22.0678 10.7545 22.3082C10.6242 22.35 10.6608 22.4023 10.7009 22.4597C10.708 22.4698 10.7152 22.4801 10.7217 22.4905C11.0263 22.9898 11.6718 23.278 12.2549 23.1773ZM2.9018 6.35806C2.91539 4.91103 3.44367 3.72228 4.65305 2.87431C4.69706 2.84213 4.74292 2.81255 4.79039 2.78572C5.0182 2.66572 5.24742 2.72103 5.36086 2.92166C5.46586 3.10634 5.40773 3.33884 5.20195 3.46541C4.8535 3.67555 4.55066 3.95335 4.31133 4.28244C3.74883 5.069 3.63351 5.95587 3.72679 6.89009C3.74751 7.09723 3.79026 7.29913 3.83301 7.50099L3.83301 7.501L3.83301 7.50101C3.85798 7.61892 3.88295 7.73681 3.90351 7.85572C3.95039 8.12666 3.8393 8.30338 3.6082 8.35306C3.37711 8.40275 3.20273 8.28838 3.13336 8.02494C2.99086 7.47791 2.89289 6.92666 2.9018 6.35806ZM6.79193 2.55287C6.81042 2.50469 6.81924 2.45335 6.81788 2.40176C6.81515 2.29758 6.77114 2.19875 6.69554 2.12702C6.61994 2.05529 6.51894 2.01653 6.41476 2.01926C6.31058 2.022 6.21175 2.06601 6.14002 2.14161C6.06829 2.21721 6.02953 2.31821 6.03226 2.42239C6.03362 2.47397 6.04512 2.52479 6.06611 2.57193C6.0871 2.61907 6.11717 2.66161 6.1546 2.69713C6.19204 2.73265 6.2361 2.76044 6.28428 2.77893C6.33245 2.79742 6.3838 2.80624 6.43538 2.80489C6.48697 2.80353 6.53778 2.79203 6.58492 2.77104C6.63206 2.75005 6.67461 2.71998 6.71012 2.68254C6.74564 2.64511 6.77344 2.60105 6.79193 2.55287Z" fill="#007BFF"/>
</g>
<defs>
<clipPath id="clip0">
<rect width="24" height="24" fill="white"/>
</clipPath>
</defs>
</svg>
