<svg width="37" height="37" viewBox="0 0 37 37" fill="none" xmlns="http://www.w3.org/2000/svg">
<path d="M18.8965 15.5C24.8605 15.5 30.8965 13.439 30.8965 9.5C30.8965 5.561 24.8605 3.5 18.8965 3.5C12.9325 3.5 6.89648 5.561 6.89648 9.5C6.89648 13.439 12.9325 15.5 18.8965 15.5Z" fill="#212529"/>
<path d="M6.89648 15.5C6.89648 19.439 12.9325 21.5 18.8965 21.5C24.8605 21.5 30.8965 19.439 30.8965 15.5V12.5C30.8965 16.439 24.8605 18.5 18.8965 18.5C12.9325 18.5 6.89648 16.439 6.89648 12.5V15.5Z" fill="#212529"/>
<path d="M6.89648 21.5C6.89648 25.439 12.9325 27.5 18.8965 27.5C24.8605 27.5 30.8965 25.439 30.8965 21.5V18.5C30.8965 22.439 24.8605 24.5 18.8965 24.5C12.9325 24.5 6.89648 22.439 6.89648 18.5V21.5Z" fill="#212529"/>
<path d="M6.89648 27.5C6.89648 31.439 12.9325 33.5 18.8965 33.5C24.8605 33.5 30.8965 31.439 30.8965 27.5V24.5C30.8965 28.439 24.8605 30.5 18.8965 30.5C12.9325 30.5 6.89648 28.439 6.89648 24.5V27.5Z" fill="#212529"/>
</svg>
