<svg width="37" height="37" viewBox="0 0 37 37" fill="none" xmlns="http://www.w3.org/2000/svg">
<g clip-path="url(#clip0_7897_23078)">
<path d="M0.298828 9.5C0.298828 8.30653 0.772934 7.16193 1.61685 6.31802C2.46076 5.47411 3.60535 5 4.79883 5H31.7988C32.9923 5 34.1369 5.47411 34.9808 6.31802C35.8247 7.16193 36.2988 8.30653 36.2988 9.5V27.5C36.2988 28.6935 35.8247 29.8381 34.9808 30.682C34.1369 31.5259 32.9923 32 31.7988 32H4.79883C3.60535 32 2.46076 31.5259 1.61685 30.682C0.772934 29.8381 0.298828 28.6935 0.298828 27.5V9.5ZM4.79883 7.25C4.20209 7.25 3.62979 7.48705 3.20784 7.90901C2.78588 8.33097 2.54883 8.90326 2.54883 9.5V11.75H34.0488V9.5C34.0488 8.90326 33.8118 8.33097 33.3898 7.90901C32.9679 7.48705 32.3956 7.25 31.7988 7.25H4.79883ZM34.0488 16.25H2.54883V27.5C2.54883 28.0967 2.78588 28.669 3.20784 29.091C3.62979 29.5129 4.20209 29.75 4.79883 29.75H31.7988C32.3956 29.75 32.9679 29.5129 33.3898 29.091C33.8118 28.669 34.0488 28.0967 34.0488 27.5V16.25Z" fill="#212529"/>
<path d="M4.79883 23C4.79883 22.4033 5.03588 21.831 5.45784 21.409C5.87979 20.9871 6.45209 20.75 7.04883 20.75H9.29883C9.89557 20.75 10.4679 20.9871 10.8898 21.409C11.3118 21.831 11.5488 22.4033 11.5488 23V25.25C11.5488 25.8467 11.3118 26.419 10.8898 26.841C10.4679 27.2629 9.89557 27.5 9.29883 27.5H7.04883C6.45209 27.5 5.87979 27.2629 5.45784 26.841C5.03588 26.419 4.79883 25.8467 4.79883 25.25V23Z" fill="#212529"/>
</g>
<defs>
<clipPath id="clip0_7897_23078">
<rect width="36" height="36" fill="white" transform="translate(0.298828 0.5)"/>
</clipPath>
</defs>
</svg>
