<svg width="37" height="36" viewBox="0 0 37 36" fill="none" xmlns="http://www.w3.org/2000/svg">
<path d="M13.1913 9H24.2118L26.5971 7.15498C26.9892 6.85521 27.2739 6.44334 27.411 5.9778C27.5481 5.51226 27.5305 5.01668 27.3608 4.56137C27.2003 4.10314 26.8949 3.70563 26.488 3.42535C26.0812 3.14506 25.5936 2.99625 25.0945 3.00007H12.3086C11.8096 2.9965 11.3221 3.1454 10.9153 3.42565C10.5085 3.7059 10.2031 4.10327 10.0423 4.56137C9.87354 5.01696 9.85696 5.51252 9.99492 5.97776C10.1329 6.44301 10.4184 6.85432 10.811 7.15338L13.1913 9Z" fill="#212529"/>
<path d="M24.2232 10.5H13.1647C9.2606 14.296 6.9631 19.2946 6.70117 24.5627C6.70117 28.7618 9.07152 33 14.3667 33H23.3689C27.8917 33 30.7012 29.7657 30.7012 24.5627C30.4353 19.2928 28.1326 14.2939 24.2232 10.5ZM18.1923 20.8129H19.202C19.9049 20.8188 20.5804 21.0699 21.0967 21.5173C21.6129 21.9646 21.9331 22.5763 21.9947 23.2329C22.0563 23.8896 21.855 24.5443 21.43 25.0693C21.005 25.5944 20.3867 25.9522 19.6956 26.0731V27.0575C19.6956 27.3062 19.5903 27.5448 19.4027 27.7206C19.2152 27.8965 18.9608 27.9953 18.6956 27.9953C18.4303 27.9953 18.176 27.8965 17.9884 27.7206C17.8009 27.5448 17.6955 27.3062 17.6955 27.0575V26.1302H16.3653C16.1 26.1302 15.8457 26.0314 15.6581 25.8555C15.4706 25.6797 15.3652 25.4411 15.3652 25.1924C15.3652 24.9437 15.4706 24.7051 15.6581 24.5293C15.8457 24.3534 16.1 24.2546 16.3653 24.2546H19.202C19.423 24.2546 19.635 24.1723 19.7913 24.0257C19.9476 23.8791 20.0354 23.6804 20.0354 23.4731C20.0354 23.2658 19.9476 23.067 19.7913 22.9205C19.635 22.7739 19.423 22.6916 19.202 22.6916H18.1923C17.4894 22.6857 16.814 22.4346 16.2977 21.9873C15.7814 21.5399 15.4612 20.9282 15.3996 20.2716C15.338 19.6149 15.5393 18.9603 15.9643 18.4352C16.3894 17.9101 17.0077 17.5523 17.6987 17.4314V16.438C17.6987 16.3148 17.7246 16.1929 17.7748 16.0791C17.8251 15.9653 17.8987 15.8619 17.9916 15.7748C18.0845 15.6878 18.1947 15.6187 18.3161 15.5716C18.4374 15.5244 18.5674 15.5002 18.6988 15.5002C18.8301 15.5002 18.9601 15.5244 19.0815 15.5716C19.2028 15.6187 19.3131 15.6878 19.4059 15.7748C19.4988 15.8619 19.5724 15.9653 19.6227 16.0791C19.673 16.1929 19.6988 16.3148 19.6988 16.438V17.3758H21.0323C21.2975 17.3758 21.5519 17.4746 21.7394 17.6505C21.927 17.8263 22.0323 18.0649 22.0323 18.3136C22.0323 18.5623 21.927 18.8009 21.7394 18.9767C21.5519 19.1526 21.2975 19.2514 21.0323 19.2514H18.1923C17.9713 19.2514 17.7593 19.3338 17.603 19.4803C17.4467 19.6269 17.3589 19.8257 17.3589 20.0329C17.3589 20.2402 17.4467 20.439 17.603 20.5855C17.7593 20.7321 17.9713 20.8144 18.1923 20.8144V20.8129Z" fill="#212529"/>
</svg>
