<svg width="37" height="36" viewBox="0 0 37 36" fill="none" xmlns="http://www.w3.org/2000/svg">
<mask id="mask0_7897_23054" style="mask-type:alpha" maskUnits="userSpaceOnUse" x="0" y="0" width="37" height="36">
<rect x="0.105469" width="36" height="36" fill="#C4C4C4"/>
</mask>
<g mask="url(#mask0_7897_23054)">
</g>
<g clip-path="url(#clip0_7897_23054)">
<path d="M25.7118 15.8066C25.0446 17.1077 23.692 18.0019 22.1318 18.0019C20.5715 18.0019 19.2195 17.1077 18.5517 15.8066H3.10742V29.7093H25.8969C25.147 28.818 24.6926 27.6703 24.6926 26.4167C24.6926 23.9696 26.4192 21.9204 28.7169 21.4161V15.8066H25.7118ZM15.9122 27.1485C13.4877 27.1485 11.5217 25.1824 11.5217 22.758C11.5217 20.3335 13.4872 18.3675 15.9122 18.3675C18.3372 18.3675 20.3027 20.333 20.3027 22.758C20.3027 25.183 18.3366 27.1485 15.9122 27.1485Z" fill="#212529"/>
<path d="M29.8141 29.7063C31.6325 29.7063 33.1067 28.2321 33.1067 26.4137C33.1067 24.5952 31.6325 23.1211 29.8141 23.1211C27.9956 23.1211 26.5215 24.5952 26.5215 26.4137C26.5215 28.2321 27.9956 29.7063 29.8141 29.7063Z" fill="#212529"/>
<path d="M22.1327 16.1737C23.3451 16.1737 24.328 15.1909 24.328 13.9784C24.328 12.766 23.3451 11.7832 22.1327 11.7832C20.9203 11.7832 19.9375 12.766 19.9375 13.9784C19.9375 15.1909 20.9203 16.1737 22.1327 16.1737Z" fill="#212529"/>
<path d="M7.90467 6.29492L6.51758 13.978H18.1073C18.1073 11.759 19.9126 9.95367 22.1316 9.95367C24.3506 9.95367 26.1559 11.759 26.1559 13.978H28.7168H30.5459V15.8071V21.3532C30.7638 21.3849 30.9777 21.429 31.1859 21.4868L33.1073 10.8444L7.90467 6.29492Z" fill="#212529"/>
</g>
<defs>
<clipPath id="clip0_7897_23054">
<rect width="30" height="30" fill="white" transform="translate(3.10742 3.00195)"/>
</clipPath>
</defs>
</svg>
