<svg width="146" height="157" viewBox="0 0 146 157" fill="none" xmlns="http://www.w3.org/2000/svg">
<path d="M72.8029 128.386C113.011 128.386 145.606 122.295 145.606 114.782C145.606 107.269 113.011 101.179 72.8029 101.179C32.5949 101.179 0 107.269 0 114.782C0 122.295 32.5949 128.386 72.8029 128.386Z" fill="#F0F1F3"/>
<path fill-rule="evenodd" clip-rule="evenodd" d="M131.045 74.8184L105.353 43.1993C104.12 41.711 102.318 40.8101 100.421 40.8101H45.1828C43.2864 40.8101 41.4845 41.711 40.2517 43.1993L14.5613 74.8184V91.3373H131.046V74.8184H131.045Z" fill="#A1ACB8"/>
<path fill-rule="evenodd" clip-rule="evenodd" d="M36.3279 0H109.277C110.416 0 111.509 0.452544 112.314 1.25808C113.12 2.06361 113.572 3.15615 113.572 4.29534V104.531C113.572 105.671 113.12 106.763 112.314 107.569C111.509 108.374 110.416 108.827 109.277 108.827H36.3279C35.1887 108.827 34.0961 108.374 33.2906 107.569C32.4851 106.763 32.0325 105.671 32.0325 104.531V4.29534C32.0325 3.15615 32.4851 2.06361 33.2906 1.25808C34.0961 0.452544 35.1887 0 36.3279 0V0Z" fill="#F2F4F7"/>
<path d="M99.7779 10.6876H45.8316C45.262 10.6876 44.7157 10.9139 44.313 11.3167C43.9102 11.7194 43.6839 12.2657 43.6839 12.8353V39.635C43.6839 40.2046 43.9102 40.7509 44.313 41.1537C44.7157 41.5564 45.262 41.7827 45.8316 41.7827H99.7779C100.347 41.7827 100.894 41.5564 101.297 41.1537C101.699 40.7509 101.926 40.2046 101.926 39.635V12.8353C101.926 12.2657 101.699 11.7194 101.297 11.3167C100.894 10.9139 100.347 10.6876 99.7779 10.6876Z" fill="#CDD3DB"/>
<path d="M99.4965 53.4413H46.1129C45.4687 53.4413 44.8509 53.6972 44.3954 54.1528C43.9398 54.6083 43.6839 55.2261 43.6839 55.8703C43.6839 56.5146 43.9398 57.1324 44.3954 57.5879C44.8509 58.0434 45.4687 58.2994 46.1129 58.2994H99.4965C100.141 58.2994 100.759 58.0434 101.214 57.5879C101.67 57.1324 101.926 56.5146 101.926 55.8703C101.926 55.2261 101.67 54.6083 101.214 54.1528C100.759 53.6972 100.141 53.4413 99.4965 53.4413Z" fill="#CDD3DB"/>
<path d="M99.4965 66.0729H46.1129C45.4686 66.0729 44.8506 66.3288 44.395 66.7845C43.9394 67.2401 43.6834 67.8581 43.6834 68.5024C43.6834 69.1468 43.9394 69.7647 44.395 70.2204C44.8506 70.676 45.4686 70.932 46.1129 70.932H99.4965C100.141 70.932 100.759 70.676 101.215 70.2204C101.67 69.7647 101.926 69.1468 101.926 68.5024C101.926 67.8581 101.67 67.2401 101.215 66.7845C100.759 66.3288 100.141 66.0729 99.4965 66.0729Z" fill="#CDD3DB"/>
<path d="M123.577 118.543C127.054 118.543 129.977 116.085 130.81 112.787C130.964 112.172 131.047 111.528 131.047 110.866V74.8182H102.786C99.6641 74.8182 97.1481 77.4534 97.1481 80.6448V80.6577C97.1481 83.8491 94.6031 86.4489 91.4814 86.4489H54.1281C51.0064 86.4489 48.4614 83.8728 48.4614 80.6824V80.6394C48.4614 77.448 45.9454 74.8193 42.8238 74.8193H14.5626V110.865C14.5624 111.513 14.6424 112.158 14.801 112.787C15.6321 116.084 18.5551 118.543 22.0322 118.543H123.577Z" fill="#CDD3DB"/>
<path d="M32.6118 152.59C31.8872 152.973 30.9848 153.164 29.9047 153.164C28.5102 153.164 27.3937 152.715 26.5551 151.817C25.7166 150.92 25.2973 149.742 25.2973 148.283C25.2973 146.715 25.769 145.449 26.7124 144.482C27.6557 143.516 28.852 143.033 30.3012 143.033C31.2309 143.033 32.0011 143.168 32.6118 143.437V144.66C31.91 144.268 31.1352 144.072 30.2876 144.072C29.1619 144.072 28.2482 144.448 27.5463 145.2C26.8491 145.952 26.5004 146.957 26.5004 148.215C26.5004 149.409 26.8263 150.361 27.478 151.072C28.1342 151.779 28.9933 152.132 30.0551 152.132C31.0395 152.132 31.8917 151.913 32.6118 151.476V152.59ZM40.268 153H39.1469V148.967C39.1469 147.508 38.6046 146.779 37.52 146.779C36.9731 146.779 36.5128 146.991 36.1391 147.415C35.7654 147.834 35.5786 148.374 35.5786 149.035V153H34.4575V142.637H35.5786V147.162H35.6059C36.1437 146.278 36.9093 145.836 37.9028 145.836C39.4796 145.836 40.268 146.786 40.268 148.687V153ZM48.0473 153H46.9262V151.893H46.8989C46.434 152.74 45.714 153.164 44.7387 153.164C43.0708 153.164 42.2368 152.171 42.2368 150.184V146H43.351V150.006C43.351 151.482 43.9161 152.221 45.0463 152.221C45.5932 152.221 46.0421 152.02 46.393 151.619C46.7485 151.214 46.9262 150.685 46.9262 150.033V146H47.7602C48.0291 146 48.2524 145.92 48.4301 145.761C48.6124 145.597 48.7036 145.401 48.7036 145.173C48.7036 144.84 48.658 144.542 48.5669 144.277H49.4829C49.5695 144.533 49.6128 144.842 49.6128 145.207C49.6128 146.109 49.0909 146.643 48.0473 146.807V153ZM55.6284 153H54.5073V151.906H54.4799C53.9923 152.745 53.2745 153.164 52.3266 153.164C51.6294 153.164 51.0825 152.979 50.686 152.61C50.2941 152.241 50.0981 151.751 50.0981 151.141C50.0981 149.833 50.8683 149.072 52.4086 148.857L54.5073 148.563C54.5073 147.374 54.0265 146.779 53.0649 146.779C52.2218 146.779 51.4607 147.066 50.7817 147.641V146.492C51.4698 146.055 52.2628 145.836 53.1606 145.836C54.8058 145.836 55.6284 146.706 55.6284 148.447V153ZM54.5073 149.459L52.8188 149.691C52.2993 149.764 51.9073 149.894 51.643 150.081C51.3787 150.263 51.2465 150.589 51.2465 151.059C51.2465 151.4 51.3673 151.681 51.6088 151.899C51.8549 152.114 52.1808 152.221 52.5864 152.221C53.1424 152.221 53.6004 152.027 53.9604 151.64C54.325 151.248 54.5073 150.753 54.5073 150.156V149.459ZM66.354 152.679C65.8162 153.002 65.1782 153.164 64.4399 153.164C63.4419 153.164 62.6352 152.84 62.02 152.193C61.4093 151.542 61.104 150.699 61.104 149.664C61.104 148.511 61.4344 147.586 62.0952 146.889C62.756 146.187 63.6378 145.836 64.7407 145.836C65.3559 145.836 65.8982 145.95 66.3676 146.178V147.326C65.8481 146.962 65.2921 146.779 64.6997 146.779C63.9842 146.779 63.3963 147.037 62.936 147.552C62.4803 148.062 62.2524 148.734 62.2524 149.568C62.2524 150.389 62.4666 151.036 62.895 151.51C63.3279 151.984 63.9067 152.221 64.6313 152.221C65.242 152.221 65.8162 152.018 66.354 151.612V152.679ZM70.9751 153.164C69.9406 153.164 69.1134 152.838 68.4936 152.187C67.8784 151.53 67.5708 150.662 67.5708 149.582C67.5708 148.406 67.892 147.488 68.5346 146.827C69.1772 146.166 70.0454 145.836 71.1391 145.836C72.1827 145.836 72.9962 146.157 73.5795 146.8C74.1674 147.442 74.4614 148.333 74.4614 149.473C74.4614 150.589 74.1447 151.485 73.5112 152.159C72.8823 152.829 72.0369 153.164 70.9751 153.164ZM71.0571 146.779C70.337 146.779 69.7674 147.025 69.3481 147.518C68.9288 148.005 68.7192 148.68 68.7192 149.541C68.7192 150.37 68.9311 151.024 69.3549 151.503C69.7788 151.981 70.3461 152.221 71.0571 152.221C71.7817 152.221 72.3377 151.986 72.7251 151.517C73.117 151.047 73.3129 150.38 73.3129 149.514C73.3129 148.639 73.117 147.964 72.7251 147.49C72.3377 147.016 71.7817 146.779 71.0571 146.779ZM72.6977 142.432L70.9067 144.674H70.0385L71.5629 142.432H72.6977ZM86.0688 153H84.9477V151.811H84.9204C84.4008 152.713 83.5987 153.164 82.5141 153.164C81.6346 153.164 80.9305 152.852 80.4018 152.228C79.8777 151.599 79.6157 150.744 79.6157 149.664C79.6157 148.507 79.9073 147.579 80.4907 146.882C81.074 146.185 81.851 145.836 82.8217 145.836C83.7833 145.836 84.4829 146.214 84.9204 146.971H84.9477V142.637H86.0688V153ZM84.9477 149.835V148.803C84.9477 148.238 84.7609 147.759 84.3872 147.367C84.0135 146.975 83.5395 146.779 82.9653 146.779C82.2817 146.779 81.7439 147.03 81.352 147.531C80.9601 148.033 80.7641 148.725 80.7641 149.609C80.7641 150.416 80.951 151.054 81.3247 151.523C81.7029 151.988 82.2088 152.221 82.8422 152.221C83.4666 152.221 83.9724 151.995 84.3598 151.544C84.7517 151.093 84.9477 150.523 84.9477 149.835ZM93.9985 153H92.8774V151.893H92.8501C92.3852 152.74 91.6652 153.164 90.6899 153.164C89.0219 153.164 88.1879 152.171 88.1879 150.184V146H89.3022V150.006C89.3022 151.482 89.8673 152.221 90.9975 152.221C91.5444 152.221 91.9933 152.02 92.3442 151.619C92.6997 151.214 92.8774 150.685 92.8774 150.033V146H93.7114C93.9803 146 94.2036 145.92 94.3813 145.761C94.5636 145.597 94.6547 145.401 94.6547 145.173C94.6547 144.84 94.6092 144.542 94.518 144.277H95.434C95.5206 144.533 95.5639 144.842 95.5639 145.207C95.5639 146.109 95.0421 146.643 93.9985 146.807V153ZM93.3354 143.033C93.3354 143.512 93.226 143.904 93.0073 144.209C92.7885 144.51 92.4923 144.66 92.1186 144.66C91.795 144.66 91.4259 144.542 91.0112 144.305C90.6603 144.109 90.3891 144.011 90.1977 144.011C89.7967 144.011 89.5961 144.268 89.5961 144.783H88.9536C88.9536 144.296 89.0629 143.906 89.2817 143.614C89.5004 143.318 89.8058 143.17 90.1977 143.17C90.4939 143.17 90.8335 143.288 91.2163 143.525C91.5535 143.726 91.8452 143.826 92.0913 143.826C92.4741 143.826 92.6655 143.562 92.6655 143.033H93.3354ZM101.532 153H100.411V142.637H101.532V153ZM104.375 144.223C104.175 144.223 104.004 144.154 103.863 144.018C103.721 143.881 103.651 143.708 103.651 143.498C103.651 143.288 103.721 143.115 103.863 142.979C104.004 142.837 104.175 142.767 104.375 142.767C104.581 142.767 104.754 142.837 104.895 142.979C105.041 143.115 105.114 143.288 105.114 143.498C105.114 143.699 105.041 143.869 104.895 144.011C104.754 144.152 104.581 144.223 104.375 144.223ZM104.922 153H103.801V146H104.922V153ZM112.818 149.78H107.875C107.894 150.56 108.103 151.161 108.504 151.585C108.905 152.009 109.457 152.221 110.159 152.221C110.947 152.221 111.672 151.961 112.332 151.441V152.494C111.717 152.941 110.904 153.164 109.892 153.164C108.903 153.164 108.126 152.847 107.561 152.214C106.996 151.576 106.713 150.68 106.713 149.527C106.713 148.438 107.021 147.552 107.636 146.868C108.256 146.18 109.024 145.836 109.94 145.836C110.856 145.836 111.565 146.132 112.066 146.725C112.567 147.317 112.818 148.14 112.818 149.192V149.78ZM111.669 148.83C111.665 148.183 111.508 147.679 111.198 147.319C110.892 146.959 110.466 146.779 109.919 146.779C109.391 146.779 108.942 146.968 108.573 147.347C108.204 147.725 107.976 148.219 107.889 148.83H111.669ZM111.772 144.674H110.938L109.817 143.102L108.689 144.674H107.916L109.386 142.404H110.295L111.772 144.674ZM110.022 155.146C109.835 155.146 109.676 155.08 109.543 154.948C109.411 154.816 109.345 154.657 109.345 154.47C109.345 154.283 109.414 154.126 109.55 153.998C109.687 153.875 109.844 153.813 110.022 153.813C110.209 153.813 110.368 153.875 110.5 153.998C110.633 154.126 110.699 154.283 110.699 154.47C110.699 154.657 110.633 154.816 110.5 154.948C110.368 155.08 110.209 155.146 110.022 155.146ZM120.18 153H119.059V151.893H119.032C118.567 152.74 117.847 153.164 116.872 153.164C115.204 153.164 114.37 152.171 114.37 150.184V146H115.484V150.006C115.484 151.482 116.049 152.221 117.179 152.221C117.726 152.221 118.175 152.02 118.526 151.619C118.881 151.214 119.059 150.685 119.059 150.033V146H120.18V153Z" fill="#858585"/>
</svg>
