<svg width="36" height="36" viewBox="0 0 36 36" fill="none" xmlns="http://www.w3.org/2000/svg">
<mask id="mask0" mask-type="alpha" maskUnits="userSpaceOnUse" x="0" y="0" width="36" height="36">
<rect width="36" height="36" rx="18" fill="#C4C4C4"/>
</mask>
<g mask="url(#mask0)">
<path d="M36 0H0V36H36V0Z" fill="#F2F4F7"/>
<path d="M18 23.03C12.6318 23.0301 7.42685 24.876 3.258 28.258C2.07431 29.241 0.983696 30.3309 0 31.514L0 36H36V31.237C34.9771 30.1771 33.889 29.1822 32.742 28.258C28.5732 24.876 23.3682 23.0301 18 23.03Z" fill="#D0D7DE"/>
<path d="M18 19.8C19.335 19.8 20.6401 19.4042 21.7501 18.6625C22.8601 17.9208 23.7253 16.8666 24.2362 15.6332C24.7471 14.3998 24.8808 13.0426 24.6203 11.7332C24.3599 10.4238 23.717 9.22109 22.773 8.27708C21.829 7.33308 20.6262 6.6902 19.3169 6.42975C18.0075 6.1693 16.6503 6.30297 15.4169 6.81386C14.1835 7.32476 13.1293 8.18992 12.3876 9.29995C11.6459 10.41 11.25 11.715 11.25 13.0501C11.25 14.8403 11.9612 16.5572 13.227 17.823C14.4929 19.0889 16.2098 19.8 18 19.8Z" fill="#D0D7DE"/>
</g>
</svg>
