<svg width="90" height="90" viewBox="0 0 90 90" fill="none" xmlns="http://www.w3.org/2000/svg">
<mask id="mask0_9021_46738" style="mask-type:alpha" maskUnits="userSpaceOnUse" x="0" y="0" width="90" height="90">
<rect width="90" height="90" rx="12" fill="#C4C4C4"/>
</mask>
<g mask="url(#mask0_9021_46738)">
<path d="M90 0H0V90H90V0Z" fill="#F2F4F7"/>
<path d="M45 57.5742C31.5795 57.5744 18.5671 62.1891 8.145 70.6442C5.18576 73.1016 2.45924 75.8265 0 78.7842L0 89.9992H90V78.0917C87.4428 75.4419 84.7225 72.9546 81.855 70.6442C71.4329 62.1891 58.4205 57.5744 45 57.5742V57.5742Z" fill="#D0D7DE"/>
<path d="M45 49.5C48.3376 49.5 51.6002 48.5103 54.3753 46.6561C57.1503 44.8018 59.3132 42.1663 60.5905 39.0828C61.8677 35.9993 62.2019 32.6063 61.5508 29.3329C60.8996 26.0594 59.2924 23.0526 56.9324 20.6926C54.5724 18.3326 51.5656 16.7254 48.2922 16.0743C45.0187 15.4231 41.6257 15.7573 38.5422 17.0345C35.4587 18.3118 32.8232 20.4747 30.969 23.2498C29.1147 26.0248 28.125 29.2874 28.125 32.625C28.125 37.1005 29.9029 41.3928 33.0676 44.5574C36.2323 47.7221 40.5245 49.5 45 49.5V49.5Z" fill="#D0D7DE"/>
</g>
</svg>
