<svg width="28" height="28" viewBox="0 0 28 28" fill="none" xmlns="http://www.w3.org/2000/svg">
<rect width="28" height="28" rx="2" fill="white"/>
<mask id="mask0" mask-type="alpha" maskUnits="userSpaceOnUse" x="2" y="2" width="24" height="24">
<rect x="2.80005" y="2.8" width="22.4" height="22.4" fill="#007BFF"/>
</mask>
<g mask="url(#mask0)">
</g>
<g clip-path="url(#clip0)">
<path d="M9.20182 12.7965C8.86057 12.7965 8.57251 13.1724 8.57251 13.6169C8.57251 14.0616 8.86053 14.4375 9.20182 14.4375C9.54307 14.4375 9.83145 14.0616 9.83145 13.6169C9.83145 13.1724 9.54307 12.7965 9.20182 12.7965Z" fill="#007BFF"/>
<path d="M14.7203 17.1347C14.379 17.1347 14.0909 17.5106 14.0909 17.9554C14.0909 18.3998 14.379 18.7757 14.7203 18.7757C15.0615 18.7757 15.3499 18.3998 15.3499 17.9554C15.3499 17.5106 15.0615 17.1347 14.7203 17.1347Z" fill="#007BFF"/>
<path d="M18.2966 10.4887C12.7519 5.3868 13.0355 5.58167 12.5947 5.41042C11.9682 5.16192 11.2228 5.29186 10.7079 5.76553L5.57484 10.4887C4.99767 11.0195 4.66663 11.775 4.66663 12.5617V20.9256C4.66663 21.9111 5.46437 22.7132 6.44474 22.7132H17.4263C18.4067 22.7132 19.2044 21.9111 19.2044 20.9256V12.5617C19.2045 11.775 18.8734 11.0195 18.2966 10.4887ZM11.4065 8.69568C11.4396 8.37784 11.7312 8.15212 12.0573 8.21334C12.3693 8.27838 12.5449 8.5777 12.4868 8.85646C12.425 9.15345 12.1456 9.34263 11.8437 9.28594C11.5553 9.22579 11.3793 8.9638 11.4065 8.69568ZM7.47873 13.6168C7.47873 12.5614 8.25168 11.7028 9.20182 11.7028C10.1523 11.7028 10.9252 12.5614 10.9252 13.6168C10.9252 14.6723 10.1523 15.5313 9.20182 15.5313C8.25168 15.5313 7.47873 14.6723 7.47873 13.6168ZM10.6139 19.4378C10.2274 19.4378 9.95771 19.0415 10.11 18.6791L12.7723 12.3339C12.8893 12.0553 13.2098 11.9241 13.4883 12.0411C13.7669 12.1578 13.8978 12.4786 13.7811 12.7571L11.1185 19.1023C11.0306 19.3116 10.8279 19.4378 10.6139 19.4378ZM14.7203 19.8694C13.7702 19.8694 12.9972 19.0108 12.9972 17.9554C12.9972 16.8999 13.7702 16.0409 14.7203 16.0409C15.6704 16.0409 16.4437 16.8999 16.4437 17.9554C16.4437 19.0108 15.6704 19.8694 14.7203 19.8694Z" fill="#007BFF"/>
<path d="M23.1961 16.4948C21.4154 11.3114 20.4264 8.42945 20.4124 8.39671C20.1029 7.67994 19.5013 7.12249 18.7626 6.86765C18.7202 6.85325 18.9703 6.91399 15.004 5.97296L19.0368 9.68369C19.8385 10.4209 20.2983 11.4698 20.2983 12.5617V19.6492L22.2657 18.807C23.1556 18.422 23.5694 17.3884 23.1961 16.4948Z" fill="#007BFF"/>
</g>
<defs>
<clipPath id="clip0">
<rect width="18.6667" height="18.6667" fill="white" transform="translate(4.66663 4.66664)"/>
</clipPath>
</defs>
</svg>
