<svg width="20" height="20" viewBox="0 0 20 20" fill="none" xmlns="http://www.w3.org/2000/svg">
<rect width="20" height="20" rx="2" fill="#007BFF"/>
<mask id="mask0" mask-type="alpha" maskUnits="userSpaceOnUse" x="2" y="2" width="16" height="16">
<rect x="2.5" y="2.5" width="15" height="15" fill="#007BFF"/>
</mask>
<g mask="url(#mask0)">
</g>
<g clip-path="url(#clip0)">
<path d="M6.78697 9.19412C6.55845 9.19412 6.36555 9.44583 6.36555 9.74344C6.36555 10.0413 6.55843 10.293 6.78697 10.293C7.01548 10.293 7.2086 10.0413 7.2086 9.74344C7.2086 9.44583 7.01548 9.19412 6.78697 9.19412Z" fill="white"/>
<path d="M10.4824 12.0991C10.2539 12.0991 10.061 12.3508 10.061 12.6487C10.061 12.9463 10.2538 13.198 10.4824 13.198C10.7109 13.198 10.904 12.9463 10.904 12.6487C10.904 12.3508 10.7109 12.0991 10.4824 12.0991Z" fill="white"/>
<path d="M12.8772 7.6487C9.16426 4.23224 9.35418 4.36274 9.05899 4.24806C8.63948 4.08166 8.14031 4.16867 7.79551 4.48586L4.35818 7.6487C3.97168 8.00417 3.75 8.51003 3.75 9.03688V14.6377C3.75 15.2976 4.2842 15.8347 4.9407 15.8347H12.2944C12.951 15.8347 13.4851 15.2976 13.4851 14.6377V9.03688C13.4852 8.51003 13.2635 8.00417 12.8772 7.6487ZM8.26331 6.44801C8.2855 6.23517 8.48071 6.08402 8.69912 6.12502C8.90801 6.16857 9.02566 6.36901 8.98672 6.55568C8.94534 6.75456 8.75825 6.88124 8.55606 6.84328C8.36294 6.80299 8.24507 6.62755 8.26331 6.44801ZM5.63311 9.74342C5.63311 9.03664 6.15071 8.46169 6.78696 8.46169C7.42346 8.46169 7.94104 9.03664 7.94104 9.74342C7.94104 10.4502 7.42344 11.0254 6.78696 11.0254C6.15071 11.0254 5.63311 10.4502 5.63311 9.74342ZM7.73254 13.6414C7.47376 13.6414 7.29314 13.376 7.39514 13.1333L9.17791 8.88429C9.25628 8.69777 9.47087 8.60988 9.6574 8.68825C9.84392 8.76637 9.93157 8.98122 9.85344 9.16774L8.07044 13.4168C8.0116 13.5569 7.87585 13.6414 7.73254 13.6414ZM10.4824 13.9304C9.84612 13.9304 9.32854 13.3555 9.32854 12.6487C9.32854 11.9419 9.84614 11.3667 10.4824 11.3667C11.1186 11.3667 11.6365 11.9419 11.6365 12.6487C11.6365 13.3555 11.1186 13.9304 10.4824 13.9304Z" fill="white"/>
<path d="M16.1581 11.6707C14.9657 8.19961 14.3034 6.26973 14.294 6.2478C14.0868 5.76782 13.6839 5.39453 13.1893 5.22388C13.1609 5.21423 13.3284 5.25491 10.6723 4.62476L13.3729 7.10962C13.9097 7.60327 14.2176 8.30566 14.2176 9.03687V13.783L15.535 13.219C16.131 12.9612 16.4081 12.269 16.1581 11.6707Z" fill="white"/>
</g>
<defs>
<clipPath id="clip0">
<rect width="12.5" height="12.5" fill="white" transform="translate(3.75 3.75)"/>
</clipPath>
</defs>
</svg>
