<svg width="21" height="20" viewBox="0 0 21 20" fill="none" xmlns="http://www.w3.org/2000/svg">
<mask id="mask0" mask-type="alpha" maskUnits="userSpaceOnUse" x="0" y="0" width="21" height="20">
<rect x="0.258789" width="20.4724" height="20" fill="white"/>
</mask>
<g mask="url(#mask0)">
</g>
<g clip-path="url(#clip0)">
<path d="M6.11226 8.92676C5.80038 8.92676 5.53711 9.26237 5.53711 9.65918C5.53711 10.0563 5.80034 10.3919 6.11226 10.3919C6.42415 10.3919 6.68772 10.0563 6.68772 9.65918C6.68772 9.26237 6.42415 8.92676 6.11226 8.92676Z" fill="white"/>
<path d="M11.1562 12.8003C10.8443 12.8003 10.5811 13.1359 10.5811 13.533C10.5811 13.9299 10.8443 14.2655 11.1562 14.2655C11.4681 14.2655 11.7317 13.9299 11.7317 13.533C11.7317 13.1359 11.4681 12.8003 11.1562 12.8003Z" fill="white"/>
<path d="M14.4249 6.86625C9.35731 2.31098 9.61652 2.48497 9.21363 2.33207C8.64108 2.1102 7.95979 2.22621 7.4892 2.64913L2.79783 6.86625C2.27033 7.34021 1.96777 8.01469 1.96777 8.71716V16.1849C1.96777 17.0648 2.69687 17.781 3.59287 17.781H13.6295C14.5255 17.781 15.2546 17.0648 15.2546 16.1849V8.71716C15.2546 8.01469 14.952 7.34021 14.4249 6.86625ZM8.12767 5.26534C8.15795 4.98155 8.42439 4.78002 8.72248 4.83468C9.00757 4.89275 9.16815 5.16 9.115 5.40889C9.05852 5.67406 8.80318 5.84298 8.52722 5.79236C8.26365 5.73865 8.10278 5.50473 8.12767 5.26534ZM4.53789 9.65922C4.53789 8.71684 5.24433 7.95024 6.11271 7.95024C6.98142 7.95024 7.68783 8.71684 7.68783 9.65922C7.68783 10.6016 6.98139 11.3685 6.11271 11.3685C5.24433 11.3685 4.53789 10.6016 4.53789 9.65922ZM7.40327 14.8565C7.05006 14.8565 6.80355 14.5027 6.94277 14.1791L9.37594 8.51371C9.4829 8.26501 9.77579 8.14783 10.0304 8.25232C10.2849 8.35649 10.4046 8.64294 10.2979 8.89164L7.86443 14.557C7.78413 14.7439 7.59886 14.8565 7.40327 14.8565ZM11.1563 15.2419C10.2879 15.2419 9.58153 14.4753 9.58153 13.5329C9.58153 12.5905 10.288 11.8236 11.1563 11.8236C12.0247 11.8236 12.7314 12.5905 12.7314 13.5329C12.7314 14.4753 12.0247 15.2419 11.1563 15.2419Z" fill="white"/>
<path d="M18.9031 12.229C17.2757 7.60094 16.3718 5.02777 16.359 4.99853C16.0761 4.35856 15.5263 3.86084 14.8512 3.6333C14.8124 3.62044 15.041 3.67467 11.416 2.83447L15.1018 6.14762C15.8345 6.80583 16.2547 7.74235 16.2547 8.71728V15.0454L18.0528 14.2935C18.8661 13.9497 19.2443 13.0269 18.9031 12.229Z" fill="white"/>
</g>
<defs>
<clipPath id="clip0">
<rect width="17.0604" height="16.6667" fill="white" transform="translate(1.96777 1.66797)"/>
</clipPath>
</defs>
</svg>
