<svg width="36" height="35" viewBox="0 0 36 35" fill="none" xmlns="http://www.w3.org/2000/svg">
<g clip-path="url(#clip0_9010_46356)">
<path d="M17.9708 19.3906C17.9546 19.3873 17.9381 19.3855 17.9215 19.3853H17.8876C17.7401 19.3695 17.6039 19.3016 17.5048 19.1947C17.4057 19.0878 17.3506 18.9494 17.3502 18.8058C17.3502 18.7486 17.3268 18.6937 17.285 18.6533C17.2432 18.6129 17.1866 18.5902 17.1275 18.5902C17.0684 18.5902 17.0118 18.6129 16.97 18.6533C16.9283 18.6937 16.9048 18.7486 16.9048 18.8058C16.9063 19.0298 16.984 19.247 17.1258 19.4239C17.2677 19.6009 17.4658 19.7278 17.6895 19.7848V20.0517C17.6895 20.0796 17.6952 20.1071 17.7062 20.1328C17.7172 20.1585 17.7333 20.1819 17.7536 20.2016C17.7739 20.2213 17.798 20.2369 17.8246 20.2476C17.8512 20.2582 17.8796 20.2637 17.9084 20.2637C17.9371 20.2637 17.9656 20.2582 17.9921 20.2476C18.0187 20.2369 18.0428 20.2213 18.0631 20.2016C18.0835 20.1819 18.0996 20.1585 18.1106 20.1328C18.1216 20.1071 18.1273 20.0796 18.1273 20.0517V19.7975C18.3828 19.7531 18.6119 19.618 18.7699 19.4186C18.9279 19.2192 19.0033 18.9699 18.9814 18.7195C18.9595 18.4691 18.8419 18.2357 18.6515 18.0649C18.4611 17.8941 18.2117 17.7982 17.9522 17.7961C17.8331 17.7961 17.7167 17.7619 17.6177 17.6978C17.5187 17.6338 17.4416 17.5428 17.396 17.4363C17.3505 17.3298 17.3386 17.2127 17.3618 17.0996C17.385 16.9866 17.4424 16.8828 17.5265 16.8013C17.6107 16.7198 17.718 16.6642 17.8348 16.6417C17.9515 16.6192 18.0725 16.6308 18.1825 16.6749C18.2925 16.719 18.3865 16.7937 18.4526 16.8895C18.5188 16.9854 18.5541 17.0981 18.5541 17.2133C18.5541 17.2695 18.5772 17.3234 18.6182 17.3632C18.6593 17.4029 18.715 17.4252 18.773 17.4252C18.8311 17.4252 18.8867 17.4029 18.9278 17.3632C18.9688 17.3234 18.9918 17.2695 18.9918 17.2133C18.9933 16.976 18.9076 16.7458 18.75 16.564C18.5925 16.3822 18.3733 16.2605 18.1317 16.2205V15.9736C18.1317 15.9174 18.1086 15.8635 18.0675 15.8238C18.0265 15.7841 17.9708 15.7617 17.9128 15.7617C17.8547 15.7617 17.799 15.7841 17.758 15.8238C17.717 15.8635 17.6939 15.9174 17.6939 15.9736V16.2332C17.4464 16.2937 17.2305 16.4398 17.0869 16.6441C16.9433 16.8483 16.882 17.0963 16.9146 17.3414C16.9472 17.5864 17.0715 17.8114 17.264 17.9736C17.4564 18.1359 17.7036 18.2243 17.9587 18.222V18.222C18.1184 18.2197 18.2724 18.279 18.3869 18.3867C18.5014 18.4944 18.5671 18.6417 18.5694 18.7962C18.5717 18.9508 18.5106 19.0999 18.3993 19.2108C18.2881 19.3217 18.1359 19.3852 17.9762 19.3875L17.9708 19.3906Z" fill="#17A2B8"/>
<path d="M23.3314 12.6994C22.925 12.6994 22.5353 12.5432 22.248 12.265C21.9606 11.9868 21.7991 11.6095 21.7991 11.2161V6.14312L21.7926 6.13672H9.00531C8.60611 6.13812 8.22384 6.29298 7.94249 6.56715C7.66113 6.84133 7.50373 7.21239 7.50489 7.59887V27.9947C7.50475 28.1859 7.54348 28.3752 7.61891 28.5519C7.69435 28.7286 7.80502 28.8891 7.94456 29.0244C8.08409 29.1597 8.2498 29.267 8.43218 29.3403C8.61457 29.4136 8.81004 29.4514 9.00752 29.4515H27.0787C27.477 29.4515 27.8591 29.2986 28.1412 29.0264C28.4233 28.7541 28.5824 28.3846 28.5835 27.999V12.6994H23.3314ZM17.9578 14.9573C18.5855 14.9573 19.1991 15.1375 19.721 15.4751C20.243 15.8128 20.6497 16.2926 20.8899 16.8541C21.1302 17.4155 21.193 18.0333 21.0706 18.6293C20.9481 19.2254 20.6459 19.7729 20.202 20.2026C19.7581 20.6323 19.1926 20.9249 18.5769 21.0435C17.9613 21.162 17.3231 21.1012 16.7432 20.8687C16.1632 20.6361 15.6675 20.2422 15.3188 19.737C14.97 19.2317 14.7839 18.6376 14.7839 18.0299C14.7839 17.215 15.1183 16.4335 15.7135 15.8573C16.3087 15.281 17.116 14.9573 17.9578 14.9573V14.9573ZM13.0799 25.5048L11.5258 25.4635L11.6352 21.6493L13.1893 21.6906L13.0799 25.5048ZM19.7143 25.3989C19.1608 25.6405 18.5428 25.7072 17.9479 25.5896L14.8616 24.7505C14.5224 24.6573 14.1591 24.6953 13.8482 24.8564L13.5352 25.0185L13.6085 22.4577C14.0257 22.1858 14.5109 22.0279 15.013 22.0005C15.5151 21.9731 16.0156 22.0772 16.4617 22.3019L16.6466 22.3941C16.9659 22.554 17.3183 22.642 17.6775 22.6516L19.4965 22.7003C19.7585 22.7075 20.0098 22.8022 20.2077 22.9686C20.4057 23.1349 20.538 23.3624 20.5821 23.6125L17.8341 23.5394C17.776 23.5379 17.7197 23.5587 17.6775 23.5974C17.6354 23.636 17.6107 23.6893 17.6091 23.7455C17.6075 23.8017 17.6291 23.8562 17.669 23.8971C17.7089 23.9379 17.764 23.9617 17.822 23.9632L20.812 24.0427H20.8219C20.8799 24.0427 20.9356 24.0204 20.9767 23.9806C21.0177 23.9409 21.0407 23.887 21.0407 23.8308C21.0438 23.7192 21.0343 23.6077 21.0123 23.4981L23.0545 22.5636V22.5721C23.2063 22.4976 23.3786 22.472 23.5465 22.4989C23.7144 22.5257 23.869 22.6037 23.988 22.7215L19.7143 25.3989Z" fill="#17A2B8"/>
<path d="M24.0887 11.8534H28.5758L22.6802 6.16797V10.4781C22.6792 10.658 22.7148 10.8364 22.7851 11.0029C22.8553 11.1694 22.9589 11.3209 23.0897 11.4486C23.2206 11.5764 23.3762 11.6779 23.5476 11.7473C23.719 11.8168 23.9029 11.8528 24.0887 11.8534V11.8534Z" fill="#17A2B8"/>
</g>
<defs>
<clipPath id="clip0_9010_46356">
<rect width="35.0216" height="33.9048" fill="white" transform="translate(0.934082 0.84375)"/>
</clipPath>
</defs>
</svg>
