<svg width="15" height="18" viewBox="0 0 15 18" fill="none" xmlns="http://www.w3.org/2000/svg">
<path d="M12.3226 0.561145C10.6322 -0.0268853 9.15988 0.825982 8.2832 1.3377C8.2077 1.38259 8.13639 1.42299 8.06928 1.4589C7.95602 1.52623 7.81341 1.51277 7.70854 1.42748C6.86123 0.736207 5.8671 4.74324e-05 4.86458 4.74324e-05C3.89143 -0.00444135 2.93925 0.309773 2.13388 0.897803C1.74797 1.18508 1.40401 1.52623 1.10619 1.91676C1.08942 1.95267 1.06844 1.98409 1.04747 2.01102C-0.403872 4.01301 -0.340952 6.83197 1.19848 8.75765C1.20687 8.76663 1.21526 8.7801 1.22364 8.79356C1.24881 8.83396 1.27817 8.87436 1.30754 8.91925C1.34109 8.96863 1.37046 9.01351 1.39982 9.0584C2.10032 10.0639 2.42331 11.4195 2.53237 11.9582C2.61207 12.3756 2.68757 12.8245 2.7421 13.3048C2.88891 14.6649 3.13639 15.805 3.45938 16.604V16.6175C3.79495 17.4793 4.19344 17.9507 4.65066 17.9956H4.73874C4.9275 17.9956 5.32599 17.7307 5.90904 16.0295C5.90904 16.025 5.90904 16.0205 5.91324 16.016L6.55502 14.2654C6.7228 13.7985 7.14646 13.4888 7.61206 13.4933C7.62045 13.4933 7.62465 13.4933 7.63304 13.4933C8.11122 13.4978 8.53069 13.8255 8.68589 14.3058L9.25216 16.034C9.74293 17.4749 10.1792 17.9956 10.4225 17.9956H10.5106C10.8293 17.9507 11.2908 17.6813 11.7018 16.6175C12.008 15.8365 12.2345 14.7816 12.4233 13.3048C12.4778 12.8245 12.5533 12.3756 12.633 11.9626C12.7421 11.4195 13.0651 10.0549 13.7698 9.04942C14.9359 7.35715 15.3008 5.23396 14.7429 3.36663C14.3361 1.96164 13.4552 0.938202 12.3226 0.561145Z" fill="#007BFF"/>
</svg>
